<?xml version="1.0" encoding="UTF-8"?>
<svg id="Layer_2" data-name="Layer 2" xmlns="http://www.w3.org/2000/svg" viewBox="0 0 291 300">
  <defs>
    <style>
      .cls-1 {
        fill: #872834;
      }
    </style>
  </defs>
  <g id="Layer_1-2" data-name="Layer 1">
    <g>
      <path class="cls-1" d="m4.91,164.77c-.4-2.91-.19-5.85-.62-8.76-.2-1.39-.04-2.83-.04-4.24,0-3.86-.13-7.73.27-11.58.44-4.28.6-8.59,1.46-12.83,1.13-5.63,2.07-11.3,3.74-16.82,1.17-3.85,2.43-7.65,3.87-11.41,1.3-3.38,2.67-6.74,4.28-9.97,1.32-2.64,2.68-5.27,4.11-7.86,1.6-2.91,3.47-5.65,5.18-8.48.9-1.49,1.98-2.92,2.99-4.37.9-1.29,1.87-2.53,2.64-3.91.39-.7,1.15-1.18,1.6-1.86,2.12-3.13,4.71-5.86,7.17-8.71,4.06-4.69,8.55-8.93,13.18-13.04,1.68-1.49,3.34-3.03,5.14-4.33,3.62-2.62,7.12-5.4,11.01-7.65,2.58-1.49,5.03-3.23,7.64-4.68,2.89-1.61,5.79-3.17,8.88-4.39,1.23-.49,2.43-1.04,3.51-1.84.67-.49,1.59-.47,2.39-.76,5.86-2.1,11.73-4.16,17.8-5.56,3.85-.89,7.72-1.66,11.63-2.3,2.52-.41,5.05-.56,7.55-.96,2.2-.36,4.41-.33,6.61-.5,3.51-.28,7.03-.52,10.55-.41,4.68.15,9.36.32,14.02.71,5.43.45,10.81,1.38,16.13,2.57,4.19.94,8.31,2.12,12.4,3.42,7.93,2.51,15.58,5.7,22.89,9.65,7.93,4.28,15.53,9.06,22.52,14.79,7.37,6.04,14.03,12.78,19.87,20.31,2.45,3.16,4.94,6.29,7.2,9.58,1.56,2.27,3.02,4.63,4.45,7,1.77,2.95,3.47,5.92,5.06,8.97,2.51,4.81,4.26,9.95,6.34,14.95,1.76,4.24,2.93,8.63,4.22,13.01,1.14,3.87,1.65,7.88,2.47,11.82.74,3.54,1.12,7.13,1.44,10.71.15,1.71.22,3.46.35,5.18.3,3.88.63,7.77.41,11.65-.19,3.24-.31,6.49-.64,9.74-.27,2.61-.46,5.23-.78,7.84-.31,2.57-.82,5.09-1.3,7.63-.53,2.84-1.27,5.64-1.98,8.43-.93,3.66-2.31,7.18-3.41,10.79-1.36,4.46-3.41,8.65-5.22,12.92-.94,2.23-2.24,4.39-3.42,6.56-2.64,4.87-5.62,9.53-8.78,14.06-2.41,3.45-5.17,6.66-7.76,9.98-1.32,1.69-3.05,3.01-4.13,4.89-.29.5-.93.8-1.35,1.24-4.19,4.34-8.55,8.51-13.18,12.38-2.53,2.12-5.16,4.14-7.85,6.04-3.16,2.22-6.35,4.46-9.8,6.24-2.06,1.07-3.88,2.57-6.05,3.46-1.57.65-2.91,1.74-4.4,2.49-1.13.57-2.44.96-3.59,1.54-7.01,3.55-14.41,6.05-21.97,8.04-4.48,1.18-9.02,2.24-13.64,2.91-4.72.69-9.45,1.09-14.19,1.53-1.79.17-3.56.06-5.34.19-2.15.16-4.32.48-6.45.19-3.02-.41-6.05-.15-9.08-.58-2.13-.3-4.32-.47-6.49-.66-2.5-.22-4.99-.67-7.43-1.25-4.53-1.08-9.08-2.08-13.54-3.44-13.73-4.17-26.39-10.54-38.33-18.43-1.61-1.06-3.09-2.32-4.73-3.31-2.13-1.28-3.98-2.95-5.95-4.42-1.79-1.33-3.44-2.97-5.1-4.53-2.4-2.24-5.04-4.26-7.22-6.69-3.27-3.65-6.68-7.17-9.73-11.02-4.98-6.27-9.45-12.87-13.25-19.91-2.73-5.04-5.05-10.27-7.18-15.59-2.07-5.18-3.88-10.45-5.23-15.87-.93-3.73-1.7-7.49-2.4-11.26-.57-3.05-.94-6.14-1.39-9.21Zm278.1-16.46c.36-3.84-.2-6.67-.29-9.53-.06-1.97-.23-3.95-.51-5.9-.51-3.56-1.14-7.1-1.7-10.66-.57-3.63-1.45-7.2-2.48-10.72-1.11-3.83-2.3-7.63-3.7-11.37-1.15-3.06-2.31-6.12-3.62-9.11-5.79-13.23-13.9-24.96-23.55-35.62-10.42-11.52-22.6-20.86-36.35-28.09-8.73-4.59-17.82-8.37-27.44-10.71-3.06-.74-6.07-1.75-9.17-2.23-3.86-.6-7.71-1.27-11.6-1.67-4.1-.43-8.21-.8-12.32-.93-6.92-.22-13.81.11-20.7.95-4.41.54-8.8,1.17-13.15,2-4.89.93-9.67,2.33-14.41,3.87-7.82,2.55-15.38,5.7-22.52,9.82-6.43,3.71-12.57,7.8-18.31,12.53-3,2.47-5.91,5.03-8.77,7.63-4.39,3.99-8.36,8.42-12.09,13.04-2.31,2.86-4.59,5.76-6.71,8.76-1.88,2.65-3.59,5.44-5.28,8.22-3.91,6.46-7.3,13.18-10.16,20.18-1.56,3.83-2.82,7.75-4.11,11.66-1,3.01-1.68,6.13-2.35,9.24-.67,3.13-1.14,6.28-1.65,9.43-.61,3.82-1.09,7.66-1.28,11.52-.23,4.58-.16,9.18-.08,13.77.01.66-.36,1.28-.2,1.95.49,2.06.14,4.18.48,6.27.28,1.74.51,3.49.63,5.26.12,1.88.74,3.73.93,5.62.27,2.63.92,5.19,1.59,7.71,1.41,5.34,2.8,10.69,4.79,15.88,1.46,3.82,2.97,7.61,4.67,11.32,2.76,6.02,6.07,11.77,9.75,17.28,3.1,4.64,6.52,9.05,10.26,13.22,3.56,3.97,7.22,7.84,11.23,11.36,6.59,5.8,13.42,11.27,20.99,15.78,8.07,4.81,16.38,9.09,25.24,12.28,4.26,1.54,8.6,2.76,12.96,3.93,4.45,1.19,9,1.94,13.54,2.8,3.47.65,6.98,1.1,10.47,1.18,9.93.23,19.86.43,29.72-1.39,3.8-.7,7.64-1.24,11.37-2.17,9.86-2.46,19.44-5.77,28.59-10.3,7.76-3.84,15.07-8.4,22.15-13.33,5.76-4.01,10.94-8.73,15.83-13.75,3.63-3.72,7.06-7.63,10.15-11.84,1.39-1.89,3.08-3.6,4.34-5.59,1-1.58,1.92-3.26,3-4.76,2.94-4.13,5.33-8.56,7.63-13.04,2.55-4.97,4.69-10.11,6.56-15.39,1.47-4.14,2.69-8.34,3.79-12.57,1.33-5.07,2.06-10.29,2.82-15.48.54-3.73.79-7.5,1.01-11.27.15-2.65.03-5.32.03-7.02Z"/>
      <path class="cls-1" d="m31.75,156.97c-.21-3.9-.2-7.79-.09-11.69.08-2.94.28-5.86.56-8.78.24-2.57.52-5.15,1.09-7.66.96-4.22,1.64-8.5,2.94-12.63,1.31-4.16,2.92-8.21,4.58-12.23.85-2.05,2.04-3.96,2.99-5.97,2.55-5.4,5.59-10.53,9.16-15.3,3.29-4.4,6.47-8.91,10.46-12.71,3.14-2.99,5.94-6.34,9.42-8.99,4.93-3.74,9.88-7.45,15.17-10.68,7.86-4.81,16.14-8.65,24.92-11.38,4.21-1.31,8.48-2.41,12.83-3.17,3.8-.66,7.65-.98,11.5-1.3,3.67-.31,7.35-.71,11.02-.5,3.19.18,6.38.4,9.56.72,3,.3,5.99.74,8.98,1.11,2.5.31,4.98.93,7.42,1.58,2.92.77,5.81,1.62,8.68,2.59,6.01,2.02,11.78,4.54,17.26,7.71,5.95,3.44,11.72,7.15,17.06,11.51,7.91,6.47,15,13.71,21.04,21.97,3,4.1,5.78,8.34,8.06,12.88,2.25,4.48,4.59,8.92,6.37,13.6,1.75,4.57,3.3,9.22,4.26,14.03.62,3.1,1.34,6.18,1.82,9.32.55,3.62.81,7.26,1.1,10.88.32,3.99.15,8.03.05,12.04-.08,3.31-.15,6.65-.64,9.92-.32,2.16-.94,4.27-.7,6.49-2,4.52-2.54,9.46-4.14,14.11-3.4,9.89-7.87,19.21-13.77,27.84-2.49,3.63-5.19,7.1-8.03,10.46-2.35,2.78-4.88,5.38-7.46,7.93-6.61,6.55-13.98,12.1-21.99,16.83-7.94,4.69-16.28,8.49-25.14,11.08-2.47.72-4.98,1.31-7.48,1.91-4.15,1-8.37,1.58-12.61,2.08-5.94.7-11.91.84-17.86.64-3.47-.11-6.96-.46-10.43-.92-3.89-.52-7.7-1.36-11.51-2.27-5.26-1.26-10.41-2.86-15.43-4.92-8.78-3.6-16.83-8.44-24.56-13.9-6.36-4.49-11.94-9.84-17.22-15.5-9.26-9.93-16.12-21.39-21.23-33.95-1.77-4.35-3.52-8.72-4.62-13.28-.97-4.01-1.97-8.04-2.43-12.17-.34-3.1-.75-6.19-.97-9.31Zm125.16,78.17s.09.01.12,0c1.49-.89,3.2-1.49,4.01-3.25.24-.53,1.15-.17,1.37-.63.64-1.27,1.59-2.23,2.64-3.16-1.29.12-2.12,1.05-3.08,1.68-2.08,1.36-4.18,2.73-5.42,5.01-.47.16-.61.52-.69,1.03.6.01.92-.2,1.04-.69Zm-109.04-96.77c-.1-.13-.2-.3-.38-.13-.17.16-.04.28.09.4-.13.33-.04.65.04.98.83,3.43,2.12,6.7,4.07,9.62,2.51,3.75,3.22,8.06,4.27,12.26.27,1.09.79,1.98,1.33,2.91.58-4.84-1.56-9.33-1.79-14,.51-.19.81.44,1.28.12.24-.43-.08-.78-.23-1.14-1.17-2.86-3.09-5.27-4.69-7.87-.43-.7-.88-1.24-1.85-1.14-.6.06-1.02-.42-1.3-.97-.2-.4-.35-.86-.83-1.03Zm183.03-25.06c.07-.06.19-.12.01-.2,0,.06,0,.13,0,.19.27,2.16.65,4.31.77,6.47.19,3.39.08,6.78.25,10.18.2,4,.57,8,.62,12.01,0,.31-.1.67.21.91.48-.11.53-.54.6-.87.65-2.96,1.33-5.92,1.88-8.89.12-.63.25-.96.87-1.07.47,1.76-.23,3.56.36,5.28,1.19-4.4,1.05-8.82.43-13.3-1.81.51-1.8.5-2.12-1.38-.53-3.04-1.41-5.95-2.98-8.63-.2-.34-.23-.97-.91-.71Zm-30.61,122.6c.75.75,1.57.77,2.24,1.05.35.15.72.14.74.64.03.51-.23.74-.67.9-1.66.64-3.19,1.57-4.76,2.39-4.56,2.38-8.17,6.2-12.69,8.67-.27.15-.48.35-.31.7.15.31.39.41.72.29.27-.1.56-.17.82-.29,2.9-1.33,5.81-2.67,8.71-4.02,3.52-1.64,6.79-3.74,10.08-5.76,5.59-3.44,10.71-7.56,15.42-12.13,3.02-2.92,5.83-6.06,8.67-9.16,1.75-1.92,3.14-4.14,4.73-6.2,2.84-3.68,5.29-7.6,7.55-11.64,2.85-5.09,5.22-10.39,7.21-15.88,1.42-3.94,2.45-7.97,3.52-12.01.81-3.06,1.04-6.21,1.59-9.3.85-4.74.79-9.51,1.19-14.27.33-3.97-.4-7.93-.54-11.9-.12-3.55-.72-7.03-1.29-10.51-.44-2.66-1.23-5.25-1.91-7.86-1.02-3.92-2.36-7.72-3.75-11.5-2.3-6.22-5.39-12.06-8.85-17.71-6.15-10.03-13.73-18.81-22.78-26.32-4.74-3.93-9.8-7.4-15.07-10.57-3.53-2.13-7.23-3.97-11.04-5.51-3.77-1.53-7.56-3.05-11.49-4.17-2.43-.69-4.82-1.57-7.29-2.04-4.14-.79-8.24-1.75-12.46-2.13-3.74-.33-7.46-.82-11.22-.87-3.14-.04-6.25.36-9.37.58-2.23.16-4.48.27-6.66.66-5.28.92-10.56,1.84-15.69,3.47-9.94,3.16-19.58,6.95-28.32,12.77-4.16,2.77-8.41,5.46-12.04,8.89-3.14,2.98-6.4,5.85-9.29,9.11-3.31,3.72-6.48,7.54-9.34,11.61-1.75,2.49-3.37,5.07-4.89,7.72-1.17,2.02-2.43,4.01-3.49,6.1-1.91,3.77-3.59,7.65-5.11,11.6-1.81,4.74-2.99,9.64-4.14,14.55-.6,2.54-1.1,5.12-1.37,7.73-.26,2.57-.83,5.13-.85,7.7-.08,7.52-.54,15.04.77,22.55.55,3.12.98,6.29,1.58,9.42.36,1.88.95,3.71,1.43,5.57.89,3.44,2.1,6.76,3.38,10.06,1.57,4.06,3.54,7.91,5.54,11.76,1.16,2.23,2.42,4.41,3.75,6.54,2.22,3.57,4.76,6.92,7.4,10.19.3.37.61.88,1.32.27-1.58-2.02-2.63-4.36-3.8-6.63-1.19-2.3-1.95-4.68-1.56-7.69,2.96,1.61,5.41,3.81,8.67,4.37-.06-.52-.44-.57-.69-.75-2.06-1.39-4.46-2.23-6.25-4.08-.48-.49-1.21-.92-2-.91-1.61.02-2.91-.54-3.85-1.89-.26-.37-.75-.67-.47-1.16.28-.49.68-.91,1.35-.97,1.07-.08,1.84.41,2.51,1.14.28.3.56.56.93.18.32-.32.07-.62-.13-.88-2.17-2.73-4.06-5.66-6.09-8.49-1.96-2.74-3.81-5.57-4.53-8.92-.92-4.26-.51-8.6-.59-12.87.78-.4,1.13.03,1.46.56.82,1.35,1.79,2.57,3.08,3.52.37.27,1.04.61,1.05-.02.02-1.12.71-1.58,1.47-2.05-.89-1.03-1.64-2.01-2.27-3.09-1.34-2.3-1.87-4.91-2.94-7.31-1.54-3.46-3.33-6.81-4.54-10.42-1.29-3.84-1.71-7.72-.8-11.7.78-3.41,2.03-6.62,4.05-9.51.31-.45.48-1.05,1.16-.86.62.17.56.81.5,1.25-.21,1.79.49,3.33,1.24,4.87.49,1.03.87,2.12,1.44,3.1.85,1.49,1.69,3.01,2.98,4.24.23-.38.16-.66.07-.93-.41-1.29-.8-2.59-1.23-3.88-1.19-3.54-1-7.15-.7-10.79.12-1.38.65-2.72.69-4.05.07-2.31.68-4.49,1.1-6.71.43-2.32,1.72-4.31,2.71-6.42,1.55-3.28,3.8-6.06,6.25-8.69.59-.63,1.29-1.03,2.17-.65-1.91,8.3,1.3,15.77,3.35,23.69,1.29-1.14,1.51-2.25,1.14-3.46-.14-.46-.18-.91-.12-1.34.14-1.08.85-1.81,1.79-2.21.71-.3,1.31.13,1.68.75.55.92.44,1.91-.26,2.63-1.16,1.21-1.87,2.74-2.96,3.94-1.33,1.46-1.55,3.16-1.49,4.87.08,2.22-.4,4.35-.73,6.5-.31,2.02-.89,4-1.39,5.99-.08.3-.04.46.23.68.28-.2.44-.47.65-.78.92-1.34,1.01-2.94,1.49-4.42.25-.79.71-1.41,1.64-1.46.58-.03,1.18-.09,1.48.61.33.78,0,2.95-.77,3.33-2.23,1.12-2.89,3.28-3.86,5.27-.18.37-.51.81-.09,1.12.54.39.82-.2,1.05-.54,1.38-2.03,2.88-3.97,4.5-5.81.93-1.06,2-1.99,3.17-3.15.06.52.1.68.09.84-.26,3.16.44,6.24.69,9.36.21,2.53.78,5.13-.07,7.63-1.37,4.04-1.49,8.27-2.07,12.43-.4,2.85.03,5.68.82,8.47.42,1.49,1.46,2.63,2.01,4.02.93,2.35,2.6,4.27,3.69,6.53.2.42.6.56.86.12.76-1.29,1.76-.78,2.67-.35,1.01.47,1.95,1.09,2.91,1.66.33.2.64.4,1.03,0-.31-.76-.27-1.58-.27-2.4.02-3.12.07-6.25.03-9.37-.14-9.56-.08-19.12-.46-28.68-.31-7.94-.04-15.91-.04-23.87,0-2.17-.05-4.33-.12-6.5-.04-1.09.27-1.59,1.49-1.48,1.49.13,3.02-.1,4.49.09,3.03.4,4.48-1.6,5.74-3.72.48-.8.98-.97,1.66-.84,2.94.54,5.87,1.04,8.86,1.3,2.05.18,4.01-.04,5.98-.29,3.05-.39,5.93-1.58,8.92-2.28,1.45-.34,2.36-1.91,2.01-3.39-.32-1.35-.09-1.77,1.27-2.17,1.09-.32,1.79-1.09,2.52-2-.55-.37-1.04-.6-1.63-.7-1.68-.28-3.35-.7-5.05-.87-2.26-.22-4.28-1.17-6.36-1.92-1.67-.6-3.32-1.32-4.69-2.52-.95-.83-1.45-1.78-1.38-3.12.11-2.51,1.77-3.74,3.78-4.46,3.72-1.33,7.52-2.37,11.51-2.64,1.15-.08,2.38-.04,3.53-.62-.24-1.19-.86-2.07-1.78-2.78-.48-.37-1.05-.68-1.02-1.44.05-1.71-.05-3.4-.3-5.1-.25-1.65.88-2.7,2.53-2.82,1.88-.13,3.42.76,4.99,1.51,2.62,1.25,5.01,2.89,7.53,4.67.37-1.32.66-2.5,1.02-3.66.65-2.06,1.06-4.23,2.74-5.83,1.63-1.55,2.8-1.61,4.43-.01.83.82,1.63,1.66,2.74,2.1.68.27.76.83.52,1.33-.83,1.76-.35,3.55-.15,5.31.08.67.54,1.28,1.4.55.36-.31.82-.49,1.23-.74,2.87-1.8,5.71-3.59,9.09-4.36,2.05-.47,4.51,1.1,4.29,3.29-.15,1.47-.53,2.73-1.29,3.91-.93,1.44-1.91,2.85-2.8,4.17.86,1.05,2,.45,2.87.79,1.82.71,3.63.68,5.44.2.93-.25,1.54-.01,1.95.72.48.85,1.18,1.35,2.02,1.75,1.51.72,2.83,1.72,4.05,2.85,1.11,1.02,1.37,2.21.87,3.4-1.19,2.81-3.65,4.18-6.3,4.93-3.08.87-6.31,1.2-9.49,1.68-1.02.15-2.14-.09-3.08.56.05.21.04.46.16.6,1.4,1.71,2.22,3.71,3.05,5.73.32.78.82,1.36,1.86,1.38.48,0,1.05.12,1.55.28,3.1.94,6.19,1.89,9.42,2.34,3.77.52,7.46.66,11.02-1.01.72-.34,1.28-.22,1.8.5.7.98,1.45,1.92,1.99,3.01.66,1.34,1.73,1.9,3.24,1.83,1.91-.08,3.83.02,5.75-.04.9-.03,1.13.3,1.11,1.16-.06,2.42,0,4.84-.07,7.26-.14,4.72-.53,9.43-.64,14.14-.26,11.15-.47,22.3-1.09,33.43-.25,4.49.22,9.01-.73,13.55,1.12-.1,1.71-1.53,2.8-.94.95,2.09.06,4.38.77,6.6.89-.71.95-1.56,1.29-2.24,1.29-2.53,2.51-5.07,3.25-7.87.51-1.94,1.12-3.96,2.28-5.66,1.81-2.65,3.33-5.45,4.61-8.38.24-.55.28-1.02.08-1.64-.79-2.45-1.6-4.9-1.64-7.55-.01-.87-.09-1.8-.25-2.7-.69-4.02-1.51-8.02-1.45-12.13.03-1.78.03-3.56.17-5.34.21-2.58.98-5.09.88-7.71-.04-1.13.19-2.27.29-3.4,1.18,0,1.5.11,2.15,1.04.86,1.22,1.67,2.48,2.49,3.72,1.12,1.7,2.16,3.45,3.64,5,.49-1.07-.22-1.85-.44-2.59-.5-1.69-.87-3.52-2.49-4.71-.7-.51-1.32-1.23-1.51-2.18-.16-.8.31-1.53,1.09-1.57,1.26-.07,2.49,1.19,2.72,2.73.32,2.14,1.32,4.04,1.98,6.13.43-.28.35-.55.36-.78.04-1.45-.05-2.92.11-4.36.3-2.65-1.58-6.01-4.06-7.02-1.46-.6-2.53-1.55-2.96-3.14-.27-.99.44-1.91,1.46-1.81,1.07.1,2.45,1.4,2.55,2.47.11,1.08.56,1.95,1.35,2.67.32.29.56.83,1.12.57.53-.24.38-.78.36-1.22-.08-2.35.31-4.63.82-6.93.57-2.59,1.5-5.09,1.78-7.77.09-.89.2-1.96,1.04-2.71.4.36.86.67,1.19,1.08,4.08,5.15,7.47,10.67,8.91,17.18.84,3.77,1.02,7.61.85,11.46-.07,1.46-.01,2.92-.01,4.42.58-.22.72-.68.87-1.09.62-1.73,1.42-3.4,1.62-5.28.08-.78.69-1.69.11-2.3-1.12-1.18-.63-2.53-.62-3.79,0-.76.64-1.38,1.51-1.53.98-.17,1.14.47,1.31,1.22.09.37.14.73.13,1.09-.05,2.11-.77,4.09-1.13,6.15-.24,1.42-.8,2.79-1.23,4.23.45,0,.53-.2.66-.36,1.08-1.35,1.71-2.95,2.44-4.48.15-.3.26-.62.69-.59.43.03.52.36.61.68.08.28.15.56.2.85.47,2.74,1.02,5.48,1.19,8.26.08,1.32.34,2.66.21,3.93-.13,1.28-.43,2.6-.6,3.88-.55,4.12-1.87,7.98-3.74,11.62-2.49,4.87-5.69,9.29-9.49,13.27-.51.53-1.31.95-1.39,1.94.92.11,1.34-.6,1.88-.96,1.62-1.07,3.32-2.11,3.84-4.22.15-.62.59-1.12,1.08-1.5.73-.58,1.68-.81,2.43-.3.63.43.44,1.25.22,1.99-.34,1.13-1.25,1.57-2.15,2.1-.92.54-2.1.73-2.67,1.92,3.31-1.05,6.59-1.46,9.79-.39.07,1.44-1.15,1.79-1.68,2.63-1.53,2.41-2.93,4.89-3.92,7.57-.96,2.6-2.16,5.08-3.77,7.34-2.42,3.37-4.98,6.58-8.27,9.23-1.64,1.32-3.26,2.67-4.95,3.94-.28.21-.63.3-.44.72.15.33.5.3.77.22,1.76-.57,3.68-.88,4.54-2.89.38-.9,1.07-1.5,2.09-1.55.6-.03,1.39-.22,1.68.48.29.7.17,1.46-.42,2.08-.78.81-1.81,1.13-2.81,1.42-3.61,1.05-7.04,2.55-10.65,3.92.56.47,1.1.39,1.56.32,3.09-.52,6.16-1.12,9.02-2.5.42-.2.96-.79,1.25-.14.24.53.58,1.26.04,1.93-1.81,2.22-3.24,4.71-4.85,7.08-3.12,4.61-6.35,9.11-11.15,12.18-1.05.67-2.09,1.37-3.09,2.1-3.45,2.53-6.79,5.25-11.24,6.55Zm-18.87-39.41c.13.75.02,1.09-.71,1.29-1.32.37-2.63.65-4,.75-3.59.26-7.11-.35-10.55-1.14-3.83-.88-7.67-.96-11.54-.89-.57.01-1.48.03-1.53.72-.14,2-.73,3.96-.58,6.06,2.15-.08,4.17-.16,6.25.15,2.37.36,4.76.67,7.05,1.33,3.34.95,6.74,1.02,10.07.65,3.44-.38,6.64-1.85,9.64-3.64.45-.27,1-.53,1-1.16,0-1.33.25-2.63.35-3.94.31-4.15.39-8.32.64-12.47.54-8.95.21-17.93,1.01-26.87.21-2.35.11-4.72.24-7.08.28-5.49.31-10.99.44-16.48.04-1.79.05-3.58.13-5.37.16-3.24.91-6.45.49-9.71-.01-.08,0-.17.01-.25.26-1.87.43-3.75.41-5.64-.01-1.64-.31-1.95-1.81-1.37-3.44,1.33-6.94,1.17-10.42.5-3.28-.63-6.4-1.94-9.75-2.32-.95-.11-1.21-.02-1.36.92-.33,2-2.11,3.38-3.83,2.91-1.26-.34-2.54-.64-3.71-1.31-1.66-.95-3.33-1.9-5.1-2.61-1.65-.66-2.38-.17-2.98,1.54-.91,2.61-2.01,5.09-4.46,6.68-.2.13-.37.34-.51.54-.58.82-.43,1.78-.25,2.62.14.68.99.63,1.6.64,1.21.03,2.42-.01,3.62.04,3.79.14,7.59-.85,11.36.17.98.27,2.1-.11,2.98.56,2.87,2.17,6.33,2.31,9.66,2.6,2.55.22,5.15-.14,7.72-.21.51-.01,1.1-.11,1.55.79-5.9,2.03-11.71.34-17.49,0-.11.39-.06.67.07,1,.6,1.45,1.71,1.81,3.2,2.03,3.42.5,6.82.69,10.26.49,1.03-.06,2.07-.16,3.06.02.33.98-.1,1.55-.97,1.62-.7.06-1.37.28-2.07.32-3.93.19-7.84.16-11.74-.66-1.71-.36-3.65-1-4.84,1.22.09.31.39.35.73.42,2.29.44,4.57.84,6.89,1.11,3.02.35,6.01.79,9.06.63.58-.03,1.17,0,1.75,0,.5,0,.98.06,1.26.53-.17.48-.49.75-.91.85-2.13.52-4.27.85-6.47.47-.84-.15-1.7-.23-2.55-.35-2.06-.3-4.11-.67-6.18-.9-1.59-.18-3.19-.47-4.81-.35-.68.05-1.1.39-1.07,1.1.03.74.62.66,1.11.65,2.11-.05,4.1.68,6.13,1.08,4.27.86,8.49,1.94,12.91,1.44.32-.04.67.03.98.13.32.1.62.33.64.7.02.39-.31.58-.64.67-.67.18-1.35.43-2.04.47-3.61.25-7.13-.37-10.63-1.16-2.75-.62-5.46-1.48-8.34-1.33-.55.03-1.13-.05-1.13.78,0,.72-.05,1.5.87,1.66.77.14,1.52.43,2.27.53,3.05.4,6,1.32,9.07,1.62,2.79.27,5.53,1.03,8.38.46.6-.12,1.76-.53,1.85.48.09.99-1.08,1.14-1.84,1.17-2.52.1-5.04.11-7.58-.18-2.6-.29-5.13-.95-7.72-1.24-1.89-.21-3.71-1.09-5.67-.72-.33,1.91-.34,1.93,1.4,2.33.6.14,1.26.03,1.84.22,2.75.92,5.58,1.58,8.43,2.01,1.79.27,3.59.62,5.45.42,1.56-.17,3.16-.05,4.75-.04.4,0,.9,0,1,.54.11.64-.48.74-.86.86-.66.22-1.35.36-2.04.43-4.75.5-9.38-.23-13.95-1.49-1.87-.51-3.78-.81-5.72-.88-1.25-.05-.99,1.05-1.14,1.7-.16.65.38.98,1.04,1.09.89.14,1.78.32,2.66.52,5.91,1.35,11.81,2.75,17.95,2.24.33-.03.67.01,1,0,.37-.02.64.09.76.48.14.47-.12.72-.48.88-.76.34-1.54.68-2.39.61-1.77-.14-3.53.06-5.32-.22-3.31-.5-6.58-1.12-9.84-1.88-1.09-.25-2.26-.7-3.58-.15,1.2.92,1.36,2.55,2.84,3.08,2.63.95,5.37,1.29,8.11,1.65,3.11.41,6.24.15,9.36.05.44-.01,1.03-.1,1.1.51.06.52-.31.94-.82,1.09-.63.18-1.29.32-1.94.38-4.84.47-9.57-.4-14.31-1.17-1.14-.19-2.39-.69-3.53-.2-1.29.56-2.1,1.92-3.64,2.21,1.19.43,2.29.73,3.4.89,3.9.58,7.76,1.33,11.61,2.14,1.69.36,3.46.7,5.25.17.78-.23,1.63-.24,2.45-.28.46-.02,1.12-.22,1.25.46.15.8-.61.75-1.08.9-3.71,1.15-7.44.59-11.13,0-2.98-.48-5.91-1.34-8.9-1.8-1.14-.17-2.39-.53-3.82-.09,1.3,1.5,2.1,3.19,4.22,3.54,2.22.36,4.44.82,6.6,1.45,2.41.7,4.84,1.19,7.34,1.28,1.7.06,3.34-.48,5.03-.52.46-.01,1.12-.26,1.23.45.1.68-.27,1.14-1.01,1.33-3.71.94-7.4.4-11.06-.23-2.13-.37-4.19-1.11-6.29-1.61-1-.24-2.04-.29-3.22-.45.39,1.04.43,1.86.38,2.68-.03.52.17.87.65,1.08,1.74.74,3.56,1.26,5.43,1.5,2.43.31,4.81.87,7.23,1.17,1.46.18,2.96.6,4.42.3,1-.21,1.95-.18,2.92-.12.24,1.05.02,1.62-1.15,1.68-5.9.31-11.61-.63-17.24-2.3-.98-.29-1.99-.53-3.03-.44-.49.04-1.03.29-.81.77.47,1.01.81,2.12,2.19,2.48,1.82.48,3.67.82,5.48,1.37,1.9.57,3.91.79,5.89,1.1,2.51.4,5.05.24,7.57.27.57,0,1.06.11,1.37.64-.35.65-.36.61-1.03.88-2.35.98-4.73.28-7.08.11-1.29-.1-2.76-.04-3.84-.52-2.1-.93-4.34-.79-6.46-1.37-.43-.12-.99-.14-1.49.33.75.97-.56,1.51-.53,2.43.16.29.46.43.78.49,4.28.8,8.57,1.53,12.95,1.54,1.58,0,3.17,0,4.75.06.7.03,1.56-.06,1.75.96-.29.56-.76.71-1.34.73-3.2.12-6.39-.09-9.57-.3-3.36-.22-6.65-.95-9.94-1.67-.35-.08-.65-.06-.79.33.18.28.42.54.53.85.49,1.42,1.54,2.01,2.95,2.34,2.35.56,4.73.91,7.11,1.14,3.37.32,6.76.39,10.15.53.61.03.92.19.93.85.01.65-.32.75-.88.92-1.7.54-3.35-.14-5.02-.11-3.13.06-6.2-.62-9.29-1.1-1.49-.23-2.95-.79-4.49-.57-.96.14-1.25.85-1.31,1.66-.06.86.63.84,1.21.84,1.49,0,2.91.47,4.37.66,2.59.35,5.14,1.01,7.77,1.06,2.21.04,4.41,0,6.62.01.43,0,.97-.11,1.01.6.03.67-.47.72-.91.79-.94.15-1.88.29-2.82.38-4.26.4-8.41-.37-12.57-1.15-2.26-.42-4.5-.93-6.82-.85-1.55.05-2.42.89-2.23,2.23.71-.15,1.32.31,2.04.28,3.43-.12,6.71.93,10.07,1.36,1.66.21,3.29.59,5,.62,2.71.04,5.4-.27,8.18-.24Zm-51.71-35.7c-1.25-.47-2.69.15-3.75,1.32-1.61,1.79-3.26,3.54-5.72,4.21-.89.24-1.63.84-2.31,1.45-2.3,2.07-4.38,4.19-4.51,7.64-.07,1.93-.45,3.87-1.11,5.76-.92,2.64-1.94,5.35-2.21,8.1-.39,3.99-1.89,7.58-3,11.32-.44,1.48-1.27,2.9-1.32,4.43-.11,3.51.06,7.04-.55,10.53-.07.4.11.69.39.99.49.54,1.12.83,1.73,1.16,3.28,1.76,6.64,3.35,9.85,5.25,2.34,1.39,4.46,2.98,6.3,4.98.82.89,1.62,1.89,3.06,2.2-.28-1.92-.65-3.76-.74-5.65-.03-.61-.25-1.2.17-1.78.55-.76.19-1.15-.59-1.42-1.31-.45-1.49-.96-.91-2.19.28-.6.52-1.2.96-1.73.53-.63.36-1.2-.38-1.62-.48-.27-1.02-.29-1.54-.43-.31-.09-.52-.26-.53-.6,0-.18.04-.33.23-.39.29-.1.45.08.64.26.56.54,1.24.72,1.95.36.76-.38,1.53-.47,2.64-.12-1.09-2.15-2.86-2.81-4.69-3.32.17-.41.37-.54.64-.5,1.35.2,2.7-.77,4.12.41.97.81,2.26.17,3.36-.57,1.2-.81,2.57-1.21,3.44-2.66,1.16-1.94,2.75-3.65,4.76-4.87.7-.43,1.75-.47,2.08-1.27.4-.94-.57-1.63-.82-2.45-.46.11-.89.26-1.33.32-.48.06-.91.44-1.43.23.15-1.59,1.74-2.84,3.06-2.51.51.49-.51,1.02.21,1.52.61-.56,1.24-1.14,1.87-1.72.69-.63,1.29-1.47,2.38-.54.32.27.91.2,1.32,0,1.39-.67,2.13-2.49,1.59-3.99.94-.52,1.57-1.24,1.93-2.37.23-.71.8-1.85,2.16-1.49.15.5.3,1.01.43,1.46,1.85-.49,2.53-1.72,2.23-3.47,1.14-.23,2.03.44,3,.23.41-.08.87-.04,1.01-.55.13-.45-.25-.67-.53-.91-.47-.41-1.07-.73-1.39-1.23-.47-.74-1.34-.87-1.7-.53-2,1.87-4.4,3.18-6.5,4.89-.03.02-.04.07-.06.11-.56.94-1.43,1.19-2.39.89-.86-.27-1.68-.24-2.54-.07-.71.14-1.43.25-2.31-.05.36-.8,1.52-1.22.97-2.27-.87-.25-1.44.25-1.88.86-1.13,1.58-2.93,1.47-4.53,1.75-.46.08-1.06-.66-1.75-1.14,1.07-1.2,2.09-2.33,3.11-3.47.81.7-.11,1.43.43,2.07.95-.12,1.96-.25,2.55-1.15.37-.56-.24-.9-.9-1.47,1.54.46,2.5,1.21,3.59,2.04.35-1.03,1.38-1.29,2.1-1.94.25-.23.48-.42.48-.82.01-1.54.84-2.33,2.32-2.62.37-.07.64-.3.98.06.33.35.08.6-.06.89-.17.36-.51.79-.07,1.12.48.37.98.04,1.3-.29,1.26-1.28,2.96-1.85,4.42-2.81.94-.61,1.66-1.11,1.26-2.44,1.09.09,2.09.64,3.12-.03-.52-.94-1.59-1.34-1.84-2.46-.19-.85-.98-.94-1.82-.55-2.24,1.03-4.54,1.93-6.83,2.84-1.52.61-3.28,1.03-4.08,2.76-.14.3-.48.3-.62.14-1.22-1.34-2.56-.56-3.73-.07-.84.35-1.47.15-1.95-.31-.54-.51-.23-1.2.21-1.76-1.73.12-2.29.53-2.34,1.64.46.35,1.16-.14,1.57.46-.13.09-.23.22-.33.22-1.32,0-2.62-.22-3.69,1.04-.5.59-1.06-.29-1.44-.72-.3-.34-.41-.87.05-1.08.48-.22.68-.72,1.1-.92,1.46-.65,2.62-1.43,1.53-3.27q1.56-.27,2.36.64c.94,1.07,2.05,1.17,3.23.29.33-.25.68-.49,1.04-.68.81-.42,1.39-.84,1.05-1.97-.23-.78.3-1.48,1.11-1.64.46-.09,1.07-.41,1.48.37.72,1.37,1.36,1.53,2.94,1.12,1.86-.48,3.47-1.47,4.86-2.68.77-.67,2.16-.55,2.28-2.02,1.29.71,2.08.48,2.29-.95.03-.18.29-.31.35-.5.2-.6.33-1.23-.26-1.71-.34-.27-.49-.63-.66-1.03-.5-1.2-2.16-1.92-3.27-1.26-1.41.83-2.94,1.28-4.45,1.77-1.52.49-2.96,1.1-4.16,2.16-.73.65-1.6.74-2.47.92-.43.09-.96-.17-1.28.27-.38.51.58.65.26,1.45-1.81-.63-3.36.84-5.25.9,1.41-.88-.26-3.04,1.66-3.46-.25-1.02-.95-1.58-1.67-2.4-.34,1.01-.22,1.87-.22,2.71,0,.61-.26,1.04-.84.98-1.06-.11-2.05.24-3.08.27-.5.02-1.14.08-1.18-.57-.04-.57.54-.56,1-.67,1.14-.28,2.26-.48,2.39-2.14.12-1.52.15-3-.13-4.63,1.17.12,2.43-.44,2.99,1.12.06.16.31.36.47.36,1.23.03,2.45.17,3.52-.77,1.74-1.53,3.07-3.48,5.11-4.8-.72-.54-1.19-1.16-1.5-1.9-.62-1.51-.83-1.55-2.28-.76-3.36,1.83-6.72,3.66-9.94,5.73-.28.18-.67.28-.61.68.15.9-.51,1.09-1.09,1.43-1.94,1.12-4.19,1.79-5.11,4.26-.58,1.58-1.35,1.78-3,1.28-.47-.14-.95-.22-1.32-.01-2.45,1.38-4.33,3.26-5.24,6.11-.28.12-.66.24-1.12-.17.69-2.67,2.18-4.82,4.5-6.33,2.12-1.38,4.34-2.6,6.47-3.97,1.21-.78,2.14-1.88,2.87-3.16Zm-25.18-.82c1.84.04,3.69.03,5.51-.44,6.02-1.55,12.1-2.71,18.35-2.55,1.1.03,1.41-.42,1.39-1.46-.02-.97-.34-1.31-1.32-1.31-2.86.03-5.68.22-8.5.76-3.72.71-7.36,1.83-11.15,2.2-1.22.12-2.46.26-3.67-.18-.58-.21-.97-.51-.89-1.15.09-.72.69-.58,1.17-.6.74-.02,1.43.38,2.19.26,2.83-.47,5.68-.83,8.49-1.4,4.03-.82,8.09-1.5,12.16-2.1.56-.08,1.39.08,1.19-.79-.18-.76.07-1.94-1.32-2.02-1.83-.11-3.65.12-5.44.34-4.45.56-8.75,1.9-13.15,2.75-1.44.28-2.91.23-4.35,0-.56-.09-1.22-.41-1.11-1.11.11-.67.8-.43,1.26-.44,1.25-.04,2.54.17,3.74-.09,3.33-.71,6.65-1.45,9.99-2.09,2.39-.46,4.75-1.05,7.19-1.07,2.78-.02,2.85-.06,2.17-2.75-.02-.07-.1-.12-.19-.22-1.99-.12-3.99-.02-5.97.47-1.52.37-3.05.72-4.59.97-3.16.51-6.3,1.15-9.49,1.45-1.12.1-2.23.19-3.31-.21-.49-.18-1.04-.39-.81-1.13,2.86-.26,5.7-.39,8.49-.97,4.84-.99,9.67-2.05,14.62-2.36.68-.04,1.37-.13,1.27-.96-.08-.68-.22-1.39-1.33-1.34-3.54.16-7.02.69-10.48,1.42-3.46.73-6.88,1.73-10.47,1.63-1.04-.03-1.79-.46-2.72-1.62,8.48-.56,16.39-2.76,24.84-3.38-.48-.49-.59-.81-.52-1.14.19-.98-.27-1.27-1.17-1.21-.87.06-1.77-.06-2.62.11-3.73.74-7.45,1.58-11.18,2.34-2.78.57-5.6.81-8.41.89-.82-1.69-.6-2.16,1.11-2.12,4.58.1,9.04-.66,13.41-1.93,2.16-.62,4.37-.74,6.55-1.16.58-.11,1.16-.19,1-.93-.15-.7-.13-1.6-1.27-1.61-1.29-.02-2.56.17-3.81.46-3.69.84-7.29,2.18-11.08,2.46-1.78.13-3.56.66-5.41.12-.88-.26-1.06-.7-1.15-1.56,3.62.09,7.12-.2,10.56-.98,3.39-.77,6.78-1.53,10.16-2.29-1.36-.53-1.52-1.72-1.87-2.74-2.56-.03-4.88.81-7.19,1.49-3.4,1-6.82,1.13-10.29,1.03-.7-.02-1.29-.26-1.35-.94-.08-.85.71-.8,1.25-.81,1.83-.03,3.67.05,5.5-.02,1.01-.03,1.99-.25,2.97-.57,2.98-.98,5.95-2.03,9.1-2.4,1.77-.21,2.16-.68,2.07-2.72-.19-.01-.39-.05-.59-.04-3.13.23-6.15.94-9.14,1.87-3.04.95-6.07,1.99-9.35,1.64-.55-.06-1.07-.15-1.5-.45-.37-.25-.75-.66-.54-1.15.22-.49.69-.39,1.18-.32,1.55.23,3.1.33,4.66-.06,4.13-1.05,8.15-2.51,12.39-3.17,3.02-.47,6.09-.82,9.05-.28,3.95.73,7.86,1.27,11.87,1.11.67-.03,1.45.24,1.82-.66.48-1.14.35-2.77-.34-3.34-1.89-1.55-2.78-3.62-3.16-5.95-.34-2.06-2.7-3.11-4.52-2.07-2.46,1.41-4.9,2.86-7.74,3.47-2.13.46-3.65.08-4.52-1.32-.34-.55-.42-1.19-.54-1.89-4.18.37-7.98,2.21-12.2,2.19-4.15-.03-8.14-.77-12.3-1.76,1,30.02.41,59.76.78,89.5,1.35.22,2.39.96,3.63,1.08.78.08,1.42.17,1.69-.92.24-.96.79-1.85,1.27-2.75.64-1.21,1.45-2.42,1.1-4.04-.47,0-.88,0-1.29,0-.8-.02-1.79-.04-1.82-1.03-.03-1.1,1.03-.67,1.65-.7,1.92-.1,2.49-.75,2.16-2.63-.93-.36-1.97.13-2.91-.33-.39-.19-1.03-.12-.95-.75.08-.69.73-.52,1.19-.55.5-.03,1-.01,1.5-.02,1.97-.04,2.27-.42,1.89-2.46-1.29-.09-2.65.17-3.88-.46-.31-.16-.77-.28-.67-.77.09-.44.48-.53.87-.53.83-.01,1.68.09,2.5-.02,1.9-.27,3.31-.61,2.69-3.23-.39,0-.8,0-1.22,0-1.17,0-2.33.02-3.5,0-.7-.02-1.41-.16-1.39-1.05.02-.9.79-.66,1.33-.7.46-.03.92,0,1.37,0,1.25,0,2.47-.24,3.68-.51,1.28-.29.87-1.35.84-2.14-.02-.53-.6-.66-1.05-.55-1.76.45-3.54.09-5.31.17-.43.02-.67-.14-.79-.59-.26-.97.23-1.16,1.05-1.14,1.98.03,3.96.12,5.89-.46.77-.23,1.99-1.97,1.72-2.55-.43-.93-1.32-.34-2.01-.45-.27-.04-.57.09-.86.1-1.52.04-2.96.67-4.5.65-.92-.01-1.59-.2-1.69-1.25.25-.31.58-.49.97-.5,3.31-.03,6.44-1.31,9.76-1.28.44,0,.82-.17,1.15-.43,1.12-.89,2.43-1.43,3.67-2.12.23-.13.58-.16.59-.63-.15-.01-.3-.03-.44-.03-2.25-.05-4.4.5-6.59.92-2.47.47-4.99.71-7.49,1.02-1.03.13-1.54-.49-1.39-1.61.93-.48,1.95-.26,2.92-.39,5.03-.65,10.03-1.62,15.13-1.66.66,0,1.21-.2,1.67-.69,1-1.08,2.11-2.01,3.55-2.45.17-.05.24-.2.14-.43-.39-.3-.86-.11-1.29-.1-5.17.08-10.13,1.49-15.2,2.26-1.82.28-3.6.81-5.47.62-.87-.09-1.59-.25-1.29-1.54Zm42.35,83.31c.92-.21,1.27-.74,1.59-1.26,2.7-4.37,5.99-8.23,9.96-11.48,4.42-3.62,9.32-6.48,14.52-8.85.86-.39,1.81-.71,2.62-1.69-1.78-.14-3.31.15-4.85.18-4.86.1-9.71.36-14.56.55-1.65.06-3.31-.03-4.97.21-.74.11-1.02.39-1.13,1.02-.45,2.61-.95,5.2-1.31,7.82-.38,2.77-.53,5.56-.94,8.32-.25,1.69-.11,3.44-.94,5.16Zm-35.15-152.19c.08.48-.08.97.51,1.39,3.01,2.16,6.42,3.27,9.99,4.02,2.45.51,4.9.97,7.37,1.34.83.12,1.46,0,1.97-.55,1.38-1.49,2.68-3.06,4.06-4.55.53-.58.5-1.08.05-1.65-1.57-1.94-3.14-3.88-4.72-5.8-.22-.27-.45-.51-.92-.46-3.27.34-6.5.86-9.73,1.43-2.3.41-4.58.95-6.68,2.04-1.12.58-2.06,1.32-1.88,2.8Zm52.6-5.61c-.74,0-1.48-.09-2.08.56-1.63,1.77-3.32,3.5-4.85,5.36-.54.66-.47,1.14.02,1.75.76.94,1.53,1.87,2.15,2.9,1.02,1.68,2.18,2.31,4.35,2.06,4.11-.47,8.13-1.27,12.09-2.41,1.46-.42,2.9-.97,3.97-2.19.47-.53.61-1.05.42-1.69-.58-1.99-4.4-4.26-6.41-3.74-1.09.28-2.02.37-2.54-.89-.14-.33-.46-.51-.77-.59-2.08-.57-4.19-1.04-6.36-1.12Zm-76.56,149.62c-3.15-.84-5.84-2.25-8.4-3.97-2.2-1.48-4.19-3.28-6.71-4.26-1.09-.42-2.23-.84-3.15-1.6-1.47-1.21-3.01-2.36-4.29-3.79-.25-.28-.55-.64-.94-.3-.44.38,0,.66.24.91,4.41,4.73,8.98,9.3,14.16,13.22,2.76,2.09,5.54,4.14,8.49,5.98,5.44,3.38,10.97,6.53,16.99,8.77,3.92,1.45,7.75,3.14,11.81,4.19,2.95.76,5.86,1.65,8.99,2.15-.79-.99-2.09-1.31-2.29-2.62-1.42.02-2.75-.2-4.08-.44-2.12-.38-4.02-1.36-6.01-2.09-2.2-.8-4.44-1.45-6.65-2.17-4.69-1.54-8.9-4.05-12.99-6.76-1.32-.87-2.7-1.59-4.16-2.16-1.48-.58-2.85-1.38-4.23-2.15-.39-.22-.87-.44-.81-1,.07-.67.64-.83,1.17-.95.92-.21,1.83-.45,2.86-.94Zm-22.08-108.15c.57-.38.5-.97.49-1.47-.1-4.01-.94-7.89-2.19-11.68-.09-.28-.18-.76-.51-.77-1.71-.09-1.43-1.48-1.69-2.51-.25-1-.22-2.07-.7-3.01-.55.1-.51.49-.63.85-.87,2.6-.74,5.3-.78,7.97-.03,2.08-.21,4.21.16,6.23.5,2.77.62,5.54.34,8.28-.33,3.2-.79,6.38-.74,9.61.02,1.03.02,2.07.79,3.29,1.91-6.62,3.77-12.96,3.94-19.73,1.84.42.44,2.28,1.54,2.95Zm172.94,52.81c-.12-.07-.23-.13-.35-.2-.81.68-1.76,1.24-2.41,2.06-1.46,1.84-3.2,3.48-4.39,5.53-1.44,2.46-3.12,4.68-5.28,6.58-2.22,1.95-4.33,4.01-6.47,6.05-.38.36-.94.71-.67,1.58,3.55-1.81,6.6-4.31,10.1-6.05-1.4,1.93-3.08,3.49-5.06,4.73-2,1.25-3.94,2.58-5.91,3.88-.38.25-.69.58-.39,1.03.28.42.66.14.98-.04,1.17-.66,2.39-1.22,3.51-1.98,3.86-2.65,7.61-5.42,10.82-8.87,1.91-2.05,3.29-4.44,4.73-6.78.94-1.52,1.58-3.25,1.86-5.15-1.43.38-1.67,1.77-2.28,2.83-.68,1.19-1.22,2.49-2.32,3.37l-.32-.16c1.29-2.8,2.57-5.6,3.86-8.41Zm-16.2,34.31c-.52-.23-.81.14-1.14.37-3.27,2.28-6.53,4.56-9.79,6.86-2.05,1.45-3.63,3.43-5.61,4.95-2.66,2.03-5.77,3.21-8.81,4.51-1.19.51-2.38,1.03-3.58,1.55.32.52.72.45,1.08.43,2.79-.14,5.47-.92,7.88-2.21,2.6-1.4,5.22-2.8,7.62-4.56.3-.22.62-.6,1.28-.23-3.96,4.47-9.35,6.46-14.75,8.98,2.44.34,4.34-.29,6.16-1.37,4.65-2.76,8.88-6.12,13.38-9.09,1.69-1.11,2.95-2.81,4.39-4.53-1.01-.15-1.45.79-2.34.66.92-2.52,3.54-3.78,4.23-6.32Zm-87.61,43.46c.85.02,1.52.48,2.31.48,5.98-.02,11.97.14,17.94-.28.98-.07,2.04-.02,2.94-.3,2.77-.86,5.66-.78,8.47-1.35,4.18-.85,8.28-1.96,12.39-3.07.39-.11.79-.22.63-.71-.17-.53-.62-.26-.95-.19-.79.18-1.49.67-2.34.67-4.99,0-9.98.29-14.93-.9-2.66-.64-5.41-.94-8.09-1.54-.83-.19-1.72-.12-2.58-.17-.02.13-.04.27-.06.4,3.27,1.61,7.16,1.05,10.64,2.67-2.09,1.71-4.23,2.9-6.66,3.49-2.77.68-5.1-.3-6.82-2.66-.4-.55-.95-1-1.42-1.49-.72.45-.52,1.07-.53,1.62-.06,2.35-1.83,3.57-4.11,2.88-.67-.2-.98-.53-1.3-1.2-.36-.77-.17-1.75-1.03-2.45-2.09.6-2.48,3.25-4.51,4.11Zm29.23-9.41c1,.22,1.89.54,2.81.61,2.6.2,5.21.3,7.82.41.54.02.92.14.88.76-.06.84.62.93,1.08.81,2.74-.74,5.39-1.71,7.99-3.17-.46-.52-.78-1.03-.15-1.51,1.34-1.02,2.68-2.05,4.04-3.04,1.75-1.28,3.53-2.52,5.56-3.97-1.87-.11-3.18.54-4.46,1.16-2.29,1.1-4.66,1.96-7.17,2.3-3.7.51-7.24,1.51-10.73,2.83-2.18.83-4.36,1.76-6.73,1.96-.49.04-.68.34-.94.85Zm-29.82-107.89c0-1.03-.18-2.04-.43-3.04-.37-1.5-1.14-2.14-2.6-2.15-1.6-.01-2.55,1.03-2.18,2.56.32,1.34.32,2.71.42,4.04.19,2.58.79,5.11.85,7.72.05,2.32.75,4.6.71,6.96-.01.96-.49,2.29.44,2.79,1.07.58,2.05-.52,3.04-1,.84-.41,1.16-1.02,1.01-1.9-.3-1.83-.39-3.68-.55-5.52-.31-3.49-.19-7-.71-10.48Zm-62.79,36.5c-.62.78-.57,1.68-.28,2.54.42,1.23.74,2.52.98,3.76.59,3.08,1.65,6.01,2.51,9,.71,2.5,1.73,4.92,2.16,7.49.27,1.58.47,3.17.95,4.68.26.8.51,1.68,1.53,2.37-.33-6.02-.48-11.8-1.32-17.73.5.26.73.39.76.65.11.87.78,1.52.88,2.4.03.31.21.69.66.58.48-.11.33-.5.26-.81-.09-.45-.23-.89-.3-1.34-.55-3.07-2.25-5.68-3.37-8.51-.53-1.34-1.3-2.53-2.17-3.8-.8.95-1.31.54-1.82-.24-.31-.48-.69-.95-1.42-1.03Zm20.94,54.93c.05-.61-.42-.63-.7-.82-1.29-.87-2.64-1.67-3.88-2.62-2.88-2.19-5.55-4.69-8.95-6.13-2.14-.91-4.27-1.83-6.41-2.74-3.28-1.4-6-3.71-9.13-5.75.02.92-.84,1.13-1.01,1.79,1.83,2.71,4.07,5.02,6.53,7.14.33.29.71.8,1.16.37.6-.58,1.12-.3,1.7-.06,1.04.42,2.07.86,3.13,1.22,1.92.65,3.73,1.5,5.38,2.68,3.34,2.38,7.13,3.79,11.02,4.94.35.1.73.18,1.16,0Zm-20.4-85.94c-.28.36-.41.7-.5,1.11-.33,1.47-.71,2.94-1.12,4.39-.99,3.45-2.6,6.71-3.25,10.26-.44,2.42-.79,4.85-1.13,7.29-.24,1.74-.35,3.49-.2,5.29.46-.13.55-.49.68-.76.89-1.89,1.97-3.69,3.35-5.23,2.08-2.33,2.76-5.02,2.65-8.03-.03-.74.04-1.53.31-2.21.89-2.31.88-4.83,1.7-7.15.25-.69.21-1.41-.77-1.65-.7-.17-.96-.7-.97-1.41,0-.69-.03-1.41-.75-1.9Zm61.33-62.73c1.7-.14,3.83-.29,5.96-.53.6-.07,1.45-.21,1.39-1.11-.07-1.12.72-2.51-.66-3.3-1.81-1.03-3.49-2.26-5.25-3.36-1.44-.9-3.06-1.4-4.66-1.9-.69-.22-1.56-.26-2.07.44-.77,1.07-.23,3.18.99,3.79.92.46,1.15,1.15.94,2.05-.53,2.23.67,3.86,3.36,3.92Zm-81.81,99c-.08.16-.19.28-.22.42-.06.34.21.8-.29.97-.58.2-.66-.4-.87-.69-.64-.91-1.37-1.77-1.67-2.89-.06-.24-.23-.47-.53-.21-.24,2.41,7.16,15.39,9.47,16.37-.12-2.01-2.16-3.19-2.18-5.25,1.04.56,1.06.54,1.84,1.69,3.27,4.82,7.51,8.72,11.96,12.39.6.49,1.29,1.17,2.29.94-.02-.02-19.73-23.69-19.78-23.75Zm101.47-101.42c0,1.74.48,2.14,2.17,2.2,1.77.06,3.53.33,5.29.32.9,0,2,.3,2.69-.63.94-1.26,1.85-2.55,2.72-3.87.62-.95.8-2.04.9-3.16.1-1.06-.51-1.33-1.37-1.45-1.7-.24-3.35.3-4.79.92-2.29,1-4.37,2.5-6.55,3.76-.8.46-1.28,1.04-1.08,1.9Zm91.06,61.52c-2.95,10.43-8.91,19.33-14.41,28.66.91-.17,1.33-.64,1.79-1.04,2.93-2.61,5.34-5.68,7.71-8.78.25-.33.53-.9.88-.81.92.25,1.09-.45,1.48-.93,1.16-1.39,1.52-3.16,2.23-4.76.44-1,1.09-1.97.68-3.22-.91.08-.98-.42-.78-1.17.15-.56.23-1.14.32-1.71.33-2.07.36-4.15.09-6.25Zm-140.88,85.75c.43.13.8.32,1.1.7.79,1.02,1.67,1.97,2.44,3.01,2.49,3.37,5.92,5.37,9.83,6.58,1.13.35,2.38.75,3.62.54.12-.67-.3-.89-.58-1.18-.99-1.02-2.1-1.9-3.26-2.71-3.35-2.33-6.83-4.47-9.85-7.24-2.94-2.69-5.39-5.7-6.01-9.81-.06-.42-.33-.66-.81-1.11-.12,1.39-.45,2.46-.32,3.7.14,1.35.96,2.45,1.07,3.73.11,1.31.59,2.47,1.15,3.61.57,1.16.77,1.15,1.62.17Zm48.72-135.95c.59-2.51-.63-4.18-2.45-5.7-2.37-1.98-2.31-2.03-4.77-.19-2.59,1.94-4.66,4.12-3.94,7.74.03.16-.03.34,0,.5.08.27.14.59.31.79,1.09,1.19,2.13,2.44,3.33,3.51,1.35,1.21,2.53,1.28,3.95-.15.68-.68,1.35-1.37,2.13-1.91,1.21-.83,1.58-1.96,1.49-3.33-.03-.41-.04-.83-.06-1.25Zm-27.52,157.13c-2.47-.25-4.76-.92-6.96-1.98-2.08-1-4.23-1.83-6.55-2.01-3.12-.25-6-1.26-8.78-2.57-2.79-1.32-5.59-2.65-8.52-3.62-1.48-.49-3.02-1.1-4.91-.62,1.04.4,1.9.64,2.66,1.13,1.47.95,2.83,2.09,4.61,2.47.18.04.38.18.5.32,2.45,2.85,6.05,3.73,9.22,5.33.32.16.86.28,1.46-.04-1.75-.83-3.59-1.27-5.24-2.6.88-.02,1.46-.12,2.02.15,2.37,1.1,4.93,1.62,7.38,2.49,1.23.44,2.44.97,3.71,1.3,1.5.39,3.04.64,4.57.89,1.67.28,3.27-.02,4.83-.63Zm2.53-122.33c6.78.24,13.41-.11,20.21.57-.52-.9-1.06-1.45-.66-2.37.28-.65-.42-.79-.92-.85-.55-.06-1.04-.14-1.17-.85.27-.11.52-.22.77-.32-.21-.33-.54-.45-.86-.43-4.33.22-8.65.04-12.98.07-.33,0-.68-.03-.96.2-1.33,1.08-2.52,2.29-3.44,3.98Zm24.14-49.74c-.16-1.21.03-2.54-.73-3.56-.76-1.02-1.41-1.96-1.37-3.31.03-.95-.76-1.45-1.56-1.74-.8-.3-1.22.35-1.61.87-.4.53-.73,1.11-1.1,1.66-1.08,1.62-.96,3.62-1.62,5.35-.56,1.45-.13,2.37.94,3.21,1.01.79,1.89,1.76,3.19,2.1.07.02.18,0,.24-.04,1.12-.72,2.31-1.34,3.31-2.2.67-.57.3-1.53.31-2.34Zm-10.45,67.11c.57-.38,1.23-.63,1.14-1.4-.24-1.96-.1-3.97-.73-5.88-.21-.63-.62-.98-1.26-1.01-.58-.03-1.17-.04-1.75,0-.57.04-.86.28-1.07.94-.29.94-.02,1.78.02,2.67.23,4.71.42,9.43.63,14.14.03.73-.23,1.48.12,2.19,1.22,0,2.81-.84,2.79-1.63-.12-3.32.81-6.63.11-10.02Zm84.3,16.03c.55-1.11.54-2.25.71-3.38.17-1.11.16-2.61,1.13-3.12,1.49-.8,1.05-1.76.75-2.8-.21-.74-.44-1.46-.49-2.24-.13-1.87-.45-2.28-1.7-2.38-1.58-3.15-2.87-6.48-5.41-9.1,1.04,7.83,3.35,15.35,5.01,23.03Zm-98.43-53.53c.59.6,1.18.49,1.8.33,1.49-.4,3.05-.23,4.54-.24,1.58-.02,3.21.06,4.81.13.97.04,1.71-.57,1.8-1.41.17-1.5.05-3.02.05-4.47-2.09-.5-4.03-.44-5.93-.83-2.3-.48-4.29,1.22-4.28,3.56,0,.62-.19.99-.71,1.31-.73.45-1.56.78-2.08,1.64Zm98.55,103.1c-.8-.07-1.45.26-2.13.37-4.02.63-7.99,1.43-11.89,2.63-2.56.79-4.63,2.33-6.71,3.91-2.72,2.07-5.18,4.44-7.77,6.65-.42.36-.77.78-.16,1.44,3.46-2.86,6.52-6.23,10.83-7.98.41.64.41,1.22.22,1.84-.11.35-.23.78.15,1.02.43.27.7-.11.92-.39.35-.45.81-.65,1.32-.5,1.87.54,2.94-.46,3.91-1.84.81-1.16.75-1.58-.5-2.2-.18-.09-.52-.15-.41-.63.29-.13.65-.3,1.03-.44,3.01-1.16,6.14-1.95,9.25-2.79.71-.19,1.39-.41,1.93-1.08Zm-8.53-30.91c-.18.45-.43.83-.48,1.33-.18,2.12-.7,4.17-1.23,6.23-1,3.82-2.32,7.5-4.05,11.04-.92,1.89-1.92,3.75-2.84,5.64-.24.5-.74.99-.42,1.62.41.06.53-.19.69-.37,2.63-2.86,4.62-6.15,6.34-9.61.33-.66.67-1.16,1.5-.94.73.2.99-.33,1.15-.83.41-1.24.86-2.47,1.1-3.75.23-1.26,1.39-2.82-.77-3.62-.1-.04-.17-.28-.18-.44-.1-1.4-.32-2.81-.21-4.19.07-.86-.25-1.43-.6-2.12Zm-63.52-78.03c.12,1.38-.03,2.56-.25,3.72-.34,1.82.98,3,2.82,2.71,1.9-.3,3.85-.62,5.77-.3.99.17,1.93.14,2.94.07,0-.24.05-.42,0-.56-.73-1.9-1.65-3.7-2.83-5.37-.2-.28-.49-.47-.84-.48-2.48-.03-4.96-.04-7.61.2Zm5.12,141.41c4.82-1.61,8.91-4.46,13.08-7.31.33,1.05-.82,1.15-.62,1.87,2.1.13,6.24-4.8,7.15-8.56-.57-.05-1.05.67-1.62.23-.29-.58.26-.89.4-1.34.14-.43.43-.95-.32-1.4-5.08,6.51-11.42,11.66-18.06,16.5Zm-16.85-135.1c-.13.76.18,1.32.85,1.73.64.39,1.27.79,1.86,1.23.47.35.91.34,1.5.36,1.7.05,2.82-1.15,4.26-1.6,1.11-.35,1.41-1.64.66-2.39-1.23-1.23-2.47-2.47-3.99-3.37-.36-.21-.61-.29-1-.05-1.35.83-2.59,1.78-3.76,2.84-.4.36-.43.77-.39,1.25Zm5.98,44.08c.41-.17.39-.52.4-.85.15-4.65.29-9.29.47-13.94.02-.44-.2-.61-.47-.74-1.15-.58-2.87.31-2.91,1.57-.1,3.45-.16,6.9-.2,10.34,0,.64-.21,1.32.16,1.98.58.03,1.15.06,1.72.09.21.59.06,1.32.82,1.55Zm-17.9-22.91c.12.84.45,1.27.95,1.72,1.24,1.11,2.78.99,4.2,1.08,2.95.17,5.91.08,8.86.09,1.96,0,2.33-.34,2.6-2.55-5.53-.28-11.03-.3-16.61-.33Zm22.8,22.6c.91-.18,2.13.3,2.36-1.04.35-2.01.26-4.08.78-6.06.59-2.24.29-4.58.74-6.84.21-1.02-.58-1.6-1.58-1.22-.81.3-1.33.94-1.4,1.75-.3,3.44-.58,6.88-.75,10.33-.05.98-.56,1.92-.16,3.09Zm38.32,84.99c-1.36-.8-2.52-.35-3.6-.55-2.7-.51-5.38-.08-7.93.6-6.72,1.8-12.96,4.84-19.15,7.96-.27.14-.68.16-.59.88,3.56-.68,6.47-2.87,9.79-4.03,3.45-1.21,6.93-2.19,10.43-3.19,3.5-1,7.08-1.35,11.04-1.67Zm-52.83,1.83c.63-1.81.17-3.57.03-5.31-.28-3.44-.83-6.86-1.04-10.3-.08-1.35-.57-1.75-1.73-1.74-.53,0-1.07-.14-1.59.09.57,5.98,2.2,11.67,4.32,17.26Zm12.66-80.99c.4.15.68.12,1.02,0,1.54-.6,3.2-.76,4.75-1.48,1.09-.5,2.62-.04,3.77-.81.49-.33,1.39.32,1.51-.45.14-.87-.92-.77-1.41-1.08-1.53-.98-3.22-1.41-5.07-.82-2.44.77-4.87,1.67-7.5,1.56-.39-.02-.8.21-1.52.41,1.08.32,1.46,1.01,2,1.43.84-.39,1.75-.58,2.3-1.34,1.09.87.12,1.71.14,2.6Zm3.05-72.02c-.36.97.3,1.87.19,2.8-.16,1.24.72,1.97,1.35,2.77.4.5,1.14.65,1.67.16,1.5-1.38,2.85-2.91,4.06-4.55.37-.5.24-1.02-.49-1.02-2.26-.01-4.51-.57-6.78-.15Zm19.39,132.28c2.49-.26,4.97-.07,7.44-.18,4-.18,8-.52,12-.68,1.57-.06,3.14-.17,4.7-.34.53-.06,1.13-.1,1.01-.93-.12-.84-.71-.86-1.3-.72-2.62.64-5.3.52-7.95.71-1.44.1-2.9.12-4.32.32-3.42.49-6.84.9-10.28,1.23-.45.04-.99-.12-1.29.58Zm-40.17-132.03c1.77,1.95,2.69,4.23,4.71,5.62,2.79-.77,2.69-2.28,2.33-6.24-2.28.23-4.63-.43-7.04.62Zm-77.39,31.36c-1.63,3.79-2,7.75-1.99,12.07,1.5-.93,2.62-.85,3.48.51.22.35.67.31,1.03.18.4-.15.36-.53.31-.85-.15-.96-.16-1.98-.97-2.69-.32-.28-.41-.65-.33-1.01.24-1.13-.38-1.86-1.17-2.42-.82-.59-.85-1.21-.67-2.12.23-1.19.19-2.44.31-3.66Zm84.03,118.91c.88-.49.75-1.03.76-1.49.11-5.7-.44-11.37-.64-17.05-.06-1.77-.49-2.07-2.22-1.63.97,6.62,1.45,13.29,2.11,20.17Zm-48.72-15.57c.22-.33.04-.64-.07-.94-.78-2.14-1.52-4.3-2.63-6.31-.18-.33-.31-.64-.31-1.04.03-1.75-.06-3.5.05-5.24.08-1.35-.39-2.1-1.73-2.29-1.15,3.79,2.1,14.83,4.68,15.82Zm42.59-121.69c1.88.79,3.65,1.02,5.48.87.57-.05.79-.4.7-.95-.14-.89-.2-1.79-.26-2.7-.07-.93-1.48-1.88-2.03-1.43-1.43,1.17-2.88,2.35-3.88,4.21Zm26.28.5c-.89-1.61-1.92-2.96-2.98-4.27-.35-.43-.95-.95-1.56-.23-.94,1.13-1.5,2.43-1.57,3.93-.02.51.08.98.69.95,1.75-.09,3.54.33,5.41-.38Zm-2.47,10.73c1.94,1.15,3.8,2.25,5.88,2.86.73.21,1.55.16,2.26-.37.71-.53.49-1.26.48-1.94-.01-.66-.56-.78-1.04-.86-2.04-.36-4.1-.45-6.16-.28-.44.04-.92-.02-1.41.59Zm-62.19,111.4c.41-1.21-.15-2.37-.2-3.55-.12-2.84-.44-3.69-3.17-3.43-.08,0-.17,0-.25,0-.33-.07-.69-.43-.97.05-.23.4-.07.75.16,1.14.89,1.57,1.69,3.19,2.6,4.75.37.64.77,1.45,1.83,1.04Zm100.61-1.34c-3.32-.4-3.51-.29-5.19,2.14-.75,1.09-1.63,2.1-2.44,3.16-.48.63-.95,1.26-1.42,1.89,3.89-1.23,6.12-4.4,9.05-7.19Zm-44.92-1.42c6.09-.07,11.99-.42,17.89-.92-.86-.42-1.75-.3-2.63-.28-4.44.1-8.87-.55-13.32-.32-.81.04-1.48.16-1.94,1.51Zm-48.65-6.68c-3.97-1.42-7.85-1.98-11.68-3.03-.33.7-.76,1.5.25,1.94.61.26,1.28.47,2,.55,2.05.24,4.08.74,6.13.89.96.07,2.07.38,3.29-.35Zm126.25-50.34c1.03-.03.78-.99,1.17-1.44.93-1.08,2.25-1.96,2.29-3.65.03-1.24.59-2.2,1.78-2.73.32-.14.42-.39.32-.81-.18-.71,0-1.35.5-1.95.24-.3.64-.66.37-1.18-1.72.65-6.48,9.33-6.42,11.76Zm-93.95-51.73c-1.56-1.05-5.7-1.03-8.46.21-.05,1.18.43,1.66,1.75,1.8,2.51.26,4.56-.95,6.71-2.01Zm-16.99,131.98c-2.24-1.81-10.91-4.34-12.04-3.56,3.96,1.66,7.8,3.27,12.04,3.56Zm5.28-11.31c.15-1.88-6.28-6.42-8.66-6.18.43.41.74.79,1.13,1.06.63.45,1.52.61,1.92,1.33.65,1.16,1.21,2.31,2.89,2.02.26-.05.61.35.91.55.57.38,1.13.76,1.82,1.23Zm6.42-97.42c.04.82.47.74.84.75,1,0,2-.03,3,.02,3.6.18,7.21-.26,10.8.44.79.15,1.72.27,2.57-.52-.29-.24-.52-.61-.75-.6-5.48.05-10.96-.3-16.45-.08Zm-.83,122.35c2.45.55,4.87,2.12,7.54.25-1.03-.92-1.7-2.2-3.18-1.8-1.48.41-2.91,1.02-4.36,1.55Zm32.95-131.57c.25,1.18,1.18,1.75,1.16,2.79-.02,1.3,1.26,2.1,2.48,1.68.4-.14.54-.4.48-.86-.15-1.11-.75-2.04-1.11-3.06-.12-.33-.36-.56-.75-.55-.69,0-1.39,0-2.26,0Zm-14.61-7.09c1.71-.5,3.26-2.99,3.11-4.87-2.38-.01-3.65,1.92-3.11,4.87Zm.97-14.65c.83,1.17,2.02,1.92,3.06,2.83.39.35.96-.08.94-.34-.08-.97.43-1.9.22-2.85-1.9-.32-3.01-.23-4.21.36Zm-100.37,52.87c-.16,1.44,2.7,7.74,3.73,8-.2-1.41-.28-2.78-1.32-3.88-.45-.48-.94-1.03-.79-1.74.29-1.4-.47-2.01-1.62-2.38Zm98.12-38.45c.51-3.66.31-4-2.59-4.61-.15,1.89,1.23,4.4,2.59,4.61Zm-3.77-11.57c1.28-.96,2.59-1.61,3.55-2.86-1.29-.76-2.59-.47-3.92-.45-.23,1.14.12,2.14.36,3.32Zm-55.54,93.65c-.35,1.64-.01,3.22-.04,4.79,2.32.13,1.97-.48,1.87-1.81-.01-.21-.04-.42,0-.62.26-1.32-.23-2.12-1.84-2.36Zm-23.33-40.61c2.14-1.61,2.07-4.02,2.74-6.24-1.72.82-3.3,4.46-2.74,6.24Zm164.14,26.87c-1.44-.35-4.89,3.37-4.94,5.22.76-.49,2.04-.35,2.14-1.36.1-1.03.63-1.53,1.3-2.09.57-.47,1.09-1,1.5-1.77Zm-72.67-55.37c-2.45-.78-3.68.07-3.72,2.52,1.35.19,2.87-.81,3.72-2.52Zm-2.52,123.77c-1.57-.85-3.22-1.42-5.15-1.69.34,1.08,1.28,1.14,1.83,1.66,1.26,1.2,1.83,1.16,3.32.03Zm-1.32-125.5c1.33.07,2.62.41,3.92-.06-.91-2.17-1.13-2.32-2.87-1.92.42,1.04-.58,1.29-1.05,1.98Zm-60.55-9.46c1.21-.17,2.57-1.04,3.26-2.08-3.15-.53-3.69-.18-3.26,2.08Zm47.6,130.56c-.52.28-1.03.13-1.52.21-.27.04-.48.15-.52.44-.04.22.05.47.28.46,1.43-.05,2.94.44,4.3-.51-.52-1.04-1.31-1.54-2.36-1.82-.07.47-.13.86-.18,1.23Zm4.65-161.75c1.3-.22,1.99-1.08,2.54-2.23-.94.07-1.82-.56-2.66.2.06.62-.15,1.27.12,2.03Zm56.02,30.5c.78.65,1.29,1.12,1.85,1.51.35.24.77.6,1.23.24.42-.33.27-.84.2-1.27-.09-.55-.57-.49-.98-.49-.65,0-1.31,0-2.29,0Zm-47.87-32.75c.05,1.11.92,1.4,1.56,1.88.21.16.47.1.68-.09.23-.21.11-.39.04-.65-.34-1.27-1.29-1.14-2.28-1.14Zm-6.33-1.81c.45,0,1.1.04.96-.6-.15-.66-.8-1.04-1.5-1.09-.54-.04-.7.43-.69.85,0,.82.62.85,1.23.84Zm6.01-.17c.59.73,1.26.47,1.84.25.7-.27.4-.91.44-1.48-1,.02-1.75.31-2.27,1.23Zm.29,16.72c.56.75,1.12.22,1.62.13.34-.06.66-.44.51-.84-.17-.45-.58-.33-.94-.19-.46.18-.82.5-1.18.91Zm-84.25,51.66c-.04-.1-.07-.24-.28-.22-.2.01-.25.15-.28.31-.02.18.05.29.25.28.2,0,.24-.17.3-.37Zm.08-22.54c.23-.04.31-.21.29-.43-.02-.23-.18-.37-.4-.3-.1.04-.2.22-.22.35-.03.21.06.38.33.37Z"/>
      <path class="cls-1" d="m187.16,265.79c-.8-.47-1.3-1.29-2.28-1.33-1.2-.05-1.47.4-1.16,1.54.57,2.08,1.41,4.08,1.81,6.22.19,1.02,1.19,1.4,2.08,2.09-1.94.46-3.63,1.32-5.99,1.43,1.57-.96,1.48-1.84.93-3.08-.79-1.79-1.22-3.74-1.8-5.62-.14-.44-.05-1.02-.76-1.07-.7-.05-1.17.22-1.53.84-.31.54-.27,1.28-.9,1.71-.44-.35-.43-.83-.59-1.23-.16-.42-.21-.98-.87-.77-.53.16-.63.63-.57,1.11.06.49.13.99.26,1.46.53,2.01,1.1,4.01,1.63,6.02.19.74.53,1.33,1.33,1.7-1.74.78-3.6.84-5.55,1.15,2.03-1.14,1.07-2.56.65-4-.49-1.7-.84-3.45-1.21-5.19-.14-.67-.31-1.2-1.17-1.05-.77.13-1.37.36-1.3,1.32.15,1.84.29,3.67.66,5.48.28,1.38.48,2.78.55,4.28-2.93-2.13-5.45-4.69-8.34-6.84-.8.99.08,1.9-.04,2.82-.08.62.21,1.29.27,1.94.14,1.47,1.13,2.1,2.78,2.48-1.74.91-3.26.98-5.14,1.05,2.15-1.74,1.12-3.68.83-5.51-.21-1.34-.19-2.69-.51-4.02-.22-.9-.74-1.02-1.43-.98-.8.05-.84.64-.79,1.28.17,2.11.35,4.21.46,6.32.08,1.64-1.85,3.46-3.81,3.61-.73.06-1.48.11-2.23-.07-2.71-.68-2.82-1.95-3.17-4.4-.22-1.59-.22-3.21-.29-4.82-.04-.83-.44-1.2-1.27-1.16-.78.04-1.24.36-1.24,1.2-.02,2.54,0,5.08-.09,7.62-.04,1.06,1.11,1.02,1.42,1.83h-6.51c2.3-1.09,2.05-2.88,1.9-4.55-.12-1.35.48-2.66.14-4.24-1.05,1.38-1.19,3.02-2.11,4.22-.94,1.24-.96,2.89-2.11,4.3-1.87-2.62-2.22-5.84-3.95-8.58-.53,1.3.13,2.38,0,3.46-.04.33.01.67-.04,1-.26,1.45-.59,2.92,1.32,3.79-3.84.35-7.39-.08-10.95-1.11,1.97-.29,2.18-1.57,2.26-3.15.08-1.49.6-2.96.41-4.56-.93,1.44-1.86,2.88-2.78,4.32-.54.84-1,1.73-1.58,2.54-.43.61-.87.59-1.09-.22-.59-2.19-1.17-4.38-1.77-6.56-.13-.48-.13-1.09-.94-1.39.04,2.18-.52,4.17-.79,6.21-.14,1.05,1.07,1.14,1.53,1.99-1.47.39-2.82-.51-4.11-.09-.19-.35-.13-.61.06-.66,1.85-.53,1.6-2.09,1.78-3.47.18-1.38.37-2.77.68-4.12.27-1.21.86-2.43-.95-2.83.1-.59.47-.68.77-.53.87.43,1.84.41,2.74.53,1.5.2,1.81,1.08,2.01,2.32.24,1.49.63,2.96.99,4.6,1.7-1.33,2.59-3.04,3.4-4.76.28-.6.58-.79,1.16-.85,1.5-.14,2.99.11,4.44.35.79.13,1.58.18,2.33.12,1.17-.1,1.64.49,1.98,1.43.64,1.79,1.31,3.57,2.05,5.57,1.09-1.84,2.02-3.52,2.61-5.36.24-.77.53-1.2,1.44-1.12,2.86.27,5.67-.51,8.52-.52,3.05,0,6.04-.64,9.06-.85.73-.05,1.23.29,1.72.73,1.57,1.41,3.15,2.81,4.69,4.19.46-.23.43-.55.34-.81-.25-.78-.48-1.54-.51-2.38-.04-1-.59-1.72-1.59-2.23,3.83-1.36,7.82-1.9,11.63-3.08,3.88-1.2,7.77-2.35,11.57-3.8.25,2.37,2.53,2.78,3.72,4.27.82-1.43.49-2.97.91-4.37.11-.37-.24-.55-.57-.7-.31-.14-.78-.02-.94-.63,1.03-.64,2.23-.74,3.77-1.17-1.77,2.35-.93,4.98-1.92,7.21-.34.77,1.04,3.38,1.88,3.8.33.16.67.3,1.27.56-1.69,1.05-3.28,1.67-5.11,1.86.53-2.99-3.53-7.92-6.53-8.03-.47.65.6,1.24.06,2.01Zm-29.39,9.84c.32-1.42-.31-2.99-.27-4.61.02-.75-1.4-1.86-2.21-1.85-.81,0-2.08,1.31-2.09,2.09-.03,2.07.35,4.11.32,6.19-.02,1.85,1.14,2.5,2.89,1.93,1.05-.34,1.47-.98,1.36-2.05-.05-.49,0-1,0-1.7Zm-24.98-5.45c.03,2.66-.66,5.24-1.06,7.85-.21,1.32-.04,1.74,1.16,1.96.86.16,1.72-.43,1.79-1.44.17-2.55.14-5.12.45-7.66.06-.5-.19-.89-.8-.87-.49.02-.99-.09-1.53.16Z"/>
      <path class="cls-1" d="m152.44,30.4c-.67.66-1.54.84-2.41.81-2.5-.1-5.03.04-7.47.32-2.51.29-5.03-.15-7.51.44-.96.23-1.97.07-2.84-.67.27-.72,1.02-.9,1.57-.98.79-.13.98-.48.97-1.14-.09-4.11-.17-8.22-.27-12.33-.02-.93-.45-1.47-1.48-1.35-.67.08-1.22-.21-1.21-.91,0-.71.68-.58,1.15-.59,4.36-.09,8.72-.1,13.07-.27,1.81-.07,3.61-.33,5.41-.14.28.84-.2,1.05-.85,1.17-1.09.19-1.63.53-1.4,1.94.35,2.15.35,4.38.3,6.57-.04,1.88.32,3.71.31,5.57,0,.64.28.96,1.01.91.6-.05,1.26,0,1.64.67Zm-7.69-7.04c-1.65,0-3.01,0-4.37,0-.51,0-.89.13-.88.77.02,1.33-.12,2.67.05,3.98.08.6-.13,1.49.69,1.84,1.33.57,2.67.53,3.99-.08.25-.11.52-.23.52-.61-.01-1.94,0-3.89,0-5.9Zm-.33-2.22c.24-1.49-.03-2.95-.14-4.42-.12-1.48-.24-1.7-1.73-1.73-.54-.01-1.08-.03-1.62,0-1.06.07-1.74.46-1.69,1.73.06,1.56-.01,3.12.46,4.73,1.56.16,3.14.04,4.73-.31Z"/>
      <path class="cls-1" d="m64.58,246.57c-.97,1.22-2.87,1.93-2.04,4.35-1.95-.89-3.2-2.28-4.56-3.79,2.18.41,3.03-1.04,4.03-2.41.82-1.14,1.83-2.15,2.8-3.18.55-.59.86-1.27,1.04-2.04.87-.09,1.31.62,1.78,1.01,1.3,1.07,2.84,1.87,3.83,3.33.8,1.19.71,2.36.11,3.49-.57,1.07-1.55,1.59-2.81,1.45-.28-.03-.57,0-.94,0-.1,1.58-.21,3.09-.3,4.6-.05.72.33,1.21.98,1.4.66.19,1.14-.25,1.43-.74,1.07-1.81,2.26-3.54,3.53-5.21.58-.76,1.07-1.55.64-2.55.43-.34.77-.04,1,.15,1.32,1.1,2.76,2.06,4.13,3.07,2.05,1.5,2.1,3.48,1.65,5.43-.55,2.32-2.07,3.95-4.67,4.37-1.63.26-3-.07-4.28-1.03-2.09-1.57-4.31-2.95-6.39-4.55-1-.77-1.25-1.63-1-2.64.38-1.49.11-2.95.04-4.49Zm8.84,10.95c.59.02,1.02.04,1.46-.18,1.93-.99,3.8-4.27,3.62-6.39-.06-.77-.47-1.38-1.13-1.63-.59-.22-.94.4-1.24.83-1.2,1.72-2.37,3.46-3.58,5.17-.32.45-.94.81-.67,1.43.29.67.95.87,1.54.78Zm-3.85-13.33c.05-.68-.33-1.29-.98-1.63-.66-.35-1.04.27-1.44.66-.32.32-.62.67-.9,1.03-.33.43-1.01.77-.65,1.46.35.66,1.04.78,1.72.79,1.16.03,2.22-1.02,2.25-2.31Z"/>
      <path class="cls-1" d="m109.26,24.37c.83,3.05,1.4,6.16,2.33,9.18.3.98.87,1.34,1.84,1.19.54-.08,1.04.04,1.56.44-1.34,1.15-3.06,1.11-4.59,1.59-.62.19-1.26.32-1.91.43-.35.06-.65-.09-.71-.52-.06-.38.1-.59.45-.77.49-.25,1.37.06,1.48-.67.13-.93.21-1.97-.06-2.85-1.03-3.27-1.83-6.6-2.66-9.93-.16-.64-.65-.86-1.28-1.02-.7-.18-1.65.02-1.95-.99.14-.31.38-.4.68-.47,1.23-.3,2.45-.6,3.66-.97,1.46-.45,2.6-.21,3.85.82,2.53,2.08,5.09,4.13,7.93,5.97.44-.75-.13-1.38-.23-1.99-.23-1.33-.83-2.59-.97-3.96-.13-1.24-1.07-1.41-2.03-1.56-.49-.08-1.13-.04-1.13-.71,0-.59.64-.58,1.06-.65,1.77-.29,3.43-1.33,5.37-.82.02.77-.61.99-1.15,1.24-.79.36-.91.86-.69,1.69.93,3.49,1.75,7.02,2.67,10.51.36,1.34.81,2.65,1.01,4.01-.82.43-1.29-.02-1.79-.39-3.71-2.76-7.41-5.52-11.12-8.27-.45-.33-.86-.82-1.62-.53Z"/>
      <path class="cls-1" d="m255.48,206.96c-.62.38-1.09.27-1.52.22-1.48-.16-2.29.74-3.01,1.8-.4.59-.19,1.02.38,1.33.91.49,1.83.96,2.79,1.46.83-1.48-.79-2.05-1.12-3.29,2.23.31,3.62,1.93,5.61,2.83-1.13.71-2.13.24-3.02.52.06,1.01,1.23,1.94,2.66,2.17,1.08.17,1.19-.66,1.43-1.33.45-1.23.58-2.43-.36-3.52-.21-.25-.39-.54-.18-1,1.2.41,2,1.32,2.9,2.07.33.28.12.61-.05.9-1.18,2.1-2.37,4.19-3.53,6.3-.27.49-.58.9-1.14,1.23-.63-2.8-3.38-3-5.24-4.31-.5-.35-1.06-.61-1.58-.94-.43-.27-.87-.49-1.4-.46-.53.03-1.16-.08-1.32.63-.14.61.36.87.8,1.12.74.42,1.55.76,2,1.8-.78,0-1.43.01-2.07,0-1.05-.03-1.96.36-2.76,1-1.16.93-1.39,2.45-.52,3.66,1.16,1.63,2.64,2.85,4.52,3.6,1.21.49,2.25.19,3.21-.55.62-.49,1.14-1.17.71-1.93-.39-.68-.92-1.42-1.94-1.28-.61.09-1.22.14-1.85.22.54-1.28,2.87-4.21,3.63-4.57-.17,1.17.33,1.9,1.38,2.36,1.39.61,1.2,1.57.67,2.76-.96,2.16-2.04,4.13-4.34,5.15-3.72,1.65-7.88-.94-8.24-5.02-.23-2.64,1.06-4.38,2.82-5.99.24-.22.63-.26.73-.63.69-2.62,2.7-4.53,3.74-6.96.41-.95.77-1.89,1.55-2.61.24-.22.47-.64.81-.44.92.55,2.11.66,2.87,1.69Z"/>
      <path class="cls-1" d="m161.35,14.2c2.65.38,5.19.56,7.69,1.05,2.32.46,4.66.84,6.99,1.24.94.16,1.61.35,1.08,1.59-.35.81-.43,1.73-.58,2.61-.07.42.16,1.07-.51,1.05-.66-.01-.98-.61-.98-1.21,0-.89-.19-1.62-.92-2.2-.71-.56-1.53-.78-2.34-.53-.85.26-.63,1.25-.71,1.84-.46,3.53-1.12,7.03-1.79,10.53-.25,1.28-.01,1.72,1.42,2.07.68.16.95.43.76,1.14-1.24.42-2.46-.01-3.63-.25-1.46-.3-2.92-.44-4.39-.61-.38-.04-.72-.15-1.07-.27-.37-.13-.72-.32-.61-.79.09-.38.42-.43.77-.48,2-.24,2.16-.4,2.24-2.56.07-1.85.62-3.62.84-5.45.24-2.02.61-4.02.93-6.01-2.49-.68-3.21-.36-4.35,1.82-.23.44-.5,1-1.09.79-.52-.19-.38-.78-.29-1.22.14-.7.31-1.4.21-2.1-.1-.69.3-1.25.34-2.07Z"/>
      <path class="cls-1" d="m195.4,23.09c-2.57-.87-3.25.88-3.84,2.75-1.04,3.26-2.05,6.53-3.16,9.77-.31.91-.02,1.32.73,1.65.04.02.09.02.12.04.39.31,1.21.42.9,1.1-.29.62-1.04.42-1.58.26-1.72-.52-3.41-1.11-5.11-1.67-.62-.2-1.23-.42-1.84-.63-.53-.19-.76-.59-.85-1.12.37-.34.84-.3,1.19-.22,1.43.31,1.87-.56,2.23-1.66,1.1-3.4,2.23-6.8,3.35-10.19.54-1.62.47-1.85-1.01-2.66-.37-.2-.67-.37-.51-.84.17-.49.6-.43.95-.32,2.62.86,5.24,1.75,7.86,2.64.37.13.66.36.6,1.11Z"/>
      <path class="cls-1" d="m118.75,270.71c0,3.42-2.92,6.34-6.34,6.27-2.37-.05-6.04-2.49-5.92-6.14.12-3.57,2.5-6.11,5.98-6.09,3.32.01,6.84,3.13,6.28,5.96Zm-5.27-4.48c-1.34.01-1.71.23-2.42,1.37-1.1,1.78-1.27,3.75-1.37,5.78-.07,1.28.62,1.79,1.64,2.09,1.24.36,2.12-.09,2.93-1.51.92-1.61,1.21-3.37,1.3-5.22.07-1.7-.47-2.52-2.08-2.5Z"/>
      <path class="cls-1" d="m63.26,238.74c.27,3.33-2.84,5.83-5.59,5.98-3.49.19-6.65-2.93-6.66-6.33-.01-2.81,2.94-5.88,5.67-5.89,3.85-.02,6.55,2.55,6.58,6.24Zm-2.02-1.9c.1-1.84-1.08-2.71-2.87-2.12-2.36.79-3.85,2.59-4.97,4.65-.7,1.29-.12,3.41,2.21,3.15,1.55-.17,5.36-3.4,5.63-4.94.04-.24,0-.5,0-.75Z"/>
      <path class="cls-1" d="m223.5,252.9c0,3.25-2.94,6.15-6.21,6.12-3.07-.03-6.06-3.02-6.06-6.04,0-3.17,3.08-6.29,6.25-6.23,3.01.05,6.48,2.84,6.02,6.15Zm-2.5,2.2c.22-.5-.42-.71-.46-1.16-.17-2.15-1.56-3.59-3.03-4.92-.83-.76-1.9-.79-2.9-.23-.84.46-1.37,1.29-1.07,2.15.83,2.41,1.87,4.72,4.27,6.05,1.32.73,3.18-.33,3.19-1.89Z"/>
      <path class="cls-1" d="m35.75,203.99c3.15-.6,6.01,3.08,6.01,5.86,0,3.6-2.61,6.43-5.92,6.4-3.6-.03-6-3.32-6.07-6.14-.09-3.85,2.19-6.12,5.98-6.12Zm-1.94,9.55c2.33-.52,4.51-1.46,6.12-3.25,1.29-1.44.49-3.19-1.43-3.54-1.94-.36-5.7,1.37-6.74,3.09-.44.73-.76,1.48-.29,2.31.5.91,1.24,1.44,2.35,1.39Z"/>
      <path class="cls-1" d="m248.97,231c-2.05,2.47-4.09,4.93-6.12,7.39-.15-.02-.31-.04-.46-.05.82-2.04-.69-2.74-1.77-3.75-1.29-1.21-2.82-2.11-4.08-3.38-.61-.61-1.72-.21-2.76.08.62-1.22,1.55-1.99,2.26-2.92,1-1.32,2.13-2.54,3.16-3.83.62-.78,1.23-.94,1.93-.15.58.67,1.49,1.05,1.89,2.16-1.63-.57-3.04-.62-4.39.39-1.06.8-1.14,1.14-.11,2,.78.65,1.53,1.37,2.58,1.61.55-1.26-.43-2.01-.75-2.93,1.19.03,4.29,2.54,4.65,3.86-1.08-.26-2.1-.87-3.2-.31.33.97.57,1.2,2.85,2.8,1.96-.74,2.7-2.5,1.66-5.34.78.02,2.05,1.16,2.66,2.37Z"/>
      <path class="cls-1" d="m43.47,222.97c1.33.02,1.96-1.03,2.89-1.48,1.08-.52,1.38-1.47,1.26-2.72,1.25.74,1.84,1.95,2.65,2.98-.15.12-.22.22-.27.21-2.99-.75-4.6,1.76-6.78,2.89-1.23.63-2.34,1.5-3.64,2.16.4-3.59,1.91-6.87,2.52-10.41-.71-.09-.97.35-1.34.62-.71.51-1.44.99-2.19,1.44-1.25.74-2.59,1.4-2.15,3.35-.71-1.3-1.68-2.3-2.44-3.43.17-.13.27-.23.28-.22,1.18,1.02,2.11.36,3.13-.36,1.64-1.16,3.34-2.23,5.03-3.31.8-.51.84-1.33.91-2.17,2.14,1.31,2.55,2.97,1.79,5.34-.53,1.65-.99,3.32-1.65,5.12Z"/>
      <path class="cls-1" d="m56.81,229.96c-.83,1.03-1.93,1.72-3.27,2.19.16-.53.38-1.04.47-1.58.55-3.46-.94-4.31-3.54-4.08-1.58.14-4.71,2.97-4.95,4.49-.34,2.18.9,3.13,2.85,3.8.11.04.25,0,.37.04.44.13,1.21,0,1.11.68-.09.64-.78.82-1.39.71-3.24-.62-6.41-5.1-4.8-8.51,1.06-2.26,2.75-4.06,6.76-3.72,1.74.15,4.26,2.33,4.81,4.38.23.87,1.26.76,1.59,1.6Z"/>
      <path class="cls-1" d="m108.24,263.51c-.77,1.38-.69,2.82-1.87,3.67-.49-.33-.34-.78-.35-1.18-.06-1.66-.66-2.44-2.39-3.06-1.06-.38-2.46.08-3.3,1.16-1.28,1.65-1.95,3.52-1.8,5.62.08,1.05.51,1.83,1.73,2.08,1.09.22,2.12.37,3.19.03.44-.14.9-.12,1.35.03-.36.97-2.07,1.89-3.48,1.59-2.6-.54-4.75-1.89-5.74-4.46-1.17-3.03,1.39-6.87,4.68-7.54,2.16-.44,3.92.08,5.53,1.4.64.52,1.33.77,2.47.66Z"/>
      <path class="cls-1" d="m81.69,264.4c1.21-1.11,1.47-2.69,2.64-3.68.29.59.08.98-.02,1.42-.48,2.08,1.46,4.08,3.39,3.54.62-.17.98-.36.71-1.21-.33-1.02-.87-1.86-1.48-2.69-.59-.81-1.16-1.64-1.39-2.61-.31-1.29.34-2.63,1.44-3.32,1.32-.82,2.61-.82,3.81.04.84.6,1.54,1.41,2.59,1.64.16,1.31-.65,2.79-1.77,3.17-.24-.99.18-2.1-.55-2.98-.26-.32-.48-.69-.79-.95-.74-.63-1.42-.21-2.02.25-.64.5-.08.93.18,1.36.9,1.47,2.15,2.75,2.34,4.61.13,1.35.12,2.65-1.13,3.48-1.29.86-2.67.89-4.06.15-1.31-.69-2.06-2.3-3.89-2.23Z"/>
      <path class="cls-1" d="m38.06,201.53c-1.16,1.13-2.6,1.04-3.82,1.69-.17-.86.34-1.3.68-1.62,1.12-1.05.73-2.24.42-3.39-.32-1.2-1.4-1.61-2.48-1.69-2.61-.2-4.79.79-6.35,2.87-.56.75-.43,1.77.05,2.68.74,1.37,2.15,2.01,3.3,3-1.93.33-3.22-.41-4.38-2.63-.96-1.83-1.27-3.87-.22-5.68,1.16-2,2.9-3.41,5.47-3.27,3.18.17,5.5,2.37,6.03,5.62.15.89.16,1.93,1.29,2.42Z"/>
      <path class="cls-1" d="m208.98,251.78c.71,1.14,1.63,2.02,1.85,3.67-1.36-.83-2.51-1.39-3.9-1.23-1.16.13-2.25.85-2.4,1.97-.33,2.51.44,4.63,2.36,6.34,1.8,1.61,4.78.43,5.32-1.64.16-.63.47-1.1,1.05-1.39.76,1.6-.07,3-1.82,4.27-4.18,3.03-8.03,1.08-9.58-2.72-1.28-3.15,1.31-7.32,4.68-7.99.94-.18,1.69-.52,2.45-1.28Z"/>
      <path class="cls-1" d="m239.03,235.91c1.15.83,2.06,1.8,2.7,2.98.22.41-.08.89-.48,1.19-2.14,1.6-3.55,3.91-5.57,5.63-.42.35-.77.65-1.41.72.2-.66.88-1,.75-1.69-.13-.69-.73-.98-1.16-1.42-1.29-1.33-2.65-2.6-3.92-3.96-.76-.82-1.48-1.47-2.68-.9-.2.09-.49-.01-.99-.04,1.57-1.54,3-2.95,4.44-4.36.17-.16.36-.24.55-.09.24.19.21.47,0,.65-.92.79-.48,1.45.19,2.07,1.71,1.57,3.11,3.44,4.93,4.9.71.57,1.17.5,1.79-.12,1.83-1.82,1.85-1.81.87-4.26-.13-.32-.4-.66-.02-1.3Z"/>
      <path class="cls-1" d="m223.51,241.58c-.84.89-.32,1.53.28,2.21,1.48,1.69,2.95,3.39,4.37,5.13.57.7,1.09.74,1.81.28,1.78-1.15,2.19-2.4,1.4-4.37-.13-.31-.57-.57-.15-1.12,1.51.6,1.69,2.35,2.92,3.35-2.65,2.26-5.21,4.45-7.76,6.63-.13-.06-.26-.13-.39-.19.76-1.73-.09-2.83-1.2-3.93-.97-.96-1.87-2.02-2.67-3.13-.77-1.06-1.63-1.75-3.05-1.41.3-.89,3.54-3.41,4.43-3.46Z"/>
      <path class="cls-1" d="m270.98,155.75c2.03,0,3.52,1.4,3.53,3.33.01,2.03-1.64,3.67-3.69,3.66-1.81-.01-3.37-1.76-3.36-3.75.01-1.96,1.4-3.23,3.52-3.24Z"/>
      <path class="cls-1" d="m20.15,155.75c2.06,0,3.26,1.27,3.37,3.27.12,2.13-1.61,3.69-3.57,3.72-1.76.03-3.46-1.84-3.46-3.77,0-1.73,1.69-3.22,3.65-3.22Z"/>
      <path class="cls-1" d="m82.17,257.43c.28-1.08.53-2.18.84-3.26.22-.77.53-1.43,1.56-1.45.75-.02,1.17.26,1.39.91.06.19.06.41.03.61-.14,1.02-2.81,3.2-3.82,3.19Z"/>
      <path class="cls-1" d="m68.76,109.85c-.52-.82-.33-1.83-.22-2.73.27-2.18.43-4.35.5-6.54.03-.87-.26-1.41-1.01-1.8-1.91-1-3.83-2-5.71-3.06-.72-.41-1.84-.64-1.82-1.65.02-.9,1.12-1.08,1.75-1.56,2.37-1.83,5.13-3.04,7.64-4.66,4.58-2.94,8.77-6.29,12.43-10.33,1.08-1.19,1.12-1.23-.06-2.38-1.14-1.1-2.3-2.18-3.48-3.23-1.72-1.53-1.84-2.89-.22-4.59,2.07-2.16,4.42-3.97,6.93-5.62,1.34-.88,2.67-1.78,4-2.69,6.05-4.17,12.61-7.36,19.46-9.98,5.27-2.02,10.67-3.64,16.2-4.66,3.81-.7,7.65-1.43,11.56-1.65,3.58-.2,7.15-.7,10.74-.67,3.14.03,6.26.45,9.38.65,4.73.29,9.29,1.51,13.96,2.13.69.09,1.33.46,2.02.64,7.32,1.94,14.4,4.54,21.13,8,3.39,1.74,6.58,3.82,9.78,5.91,2.94,1.92,5.87,3.83,8.54,6.11,1.59,1.36,3.34,2.52,4.82,4.02,2.66,2.71,1.96,4.82-.48,6.9-1.19,1.02-2.49,1.9-3.74,2.86-.7.54-.77.95.03,1.58,2.07,1.63,3.79,3.7,5.86,5.29,2.4,1.84,4.79,3.69,7.27,5.44,2.33,1.64,4.61,3.35,6.95,5.05-.06.85-.67,1.15-1.35,1.39-2.15.74-4.3,1.46-6.44,2.24-1.98.72-2.29,1.27-1.69,3.29.21.72-.66.82-.55,1.55.19,1.22.07,2.49.07,3.74,0,.92-.03,1.83,0,2.75.03.78-.26,1.26-1.09,1.42-.29-.75-1.04-.97-1.67-1.33-4.35-2.49-8.31-5.52-12.24-8.6-5.97-4.68-11.6-9.72-16.46-15.59-2.79-3.37-2.73-4.49.76-7.23,2.27-1.78,2.33-1.87-.13-3.48-4.25-2.77-8.7-5.16-13.42-7.08-3.62-1.47-7.37-2.44-11.07-3.57-2.73-.83-5.67-.94-8.51-1.4-3.03-.49-6.09-.66-9.14-.94-2.88-.27-5.79-.17-8.7.15-1.95.21-3.92.28-5.89.52-5.1.63-10.1,1.55-15.04,3.01-6.64,1.96-12.75,4.97-18.6,8.58-.57.35-1.24.61-1.55,1.29.85.73,1.66,1.44,2.49,2.12.95.77.96,1.62.44,2.65-1,1.96-2.42,3.59-3.92,5.14-4.73,4.87-9.4,9.81-15.02,13.69-3.55,2.45-7.11,4.9-10.94,6.91-1.43.75-2.63,1.98-4.52,2.01Zm21.48-26.67c4.17-3.97,8.8-7,13.56-9.88,6.4-3.87,13.23-6.63,20.47-8.49,6.33-1.63,12.76-2.41,19.26-2.67,3.48-.14,6.96-.09,10.46.33,3.59.43,7.17.77,10.72,1.52,5.16,1.09,10.23,2.47,15.08,4.56,4.69,2.02,9.17,4.43,13.38,7.34,3.91,2.7,7.81,5.4,11.04,8.94.42.46.85.68,1.33.03,3.02-4.09,7.06-7.17,10.7-10.63.97-.92,1.12-2.29.25-3.3-.49-.56-1.03-1.1-1.61-1.57-1.87-1.5-3.82-2.92-5.66-4.44-3.98-3.29-8.39-5.88-12.78-8.52-3.09-1.86-6.45-3.17-9.75-4.59-3.91-1.69-7.97-2.96-12.03-4.21-3.9-1.21-7.91-1.99-11.92-2.71-3.14-.56-6.37-.67-9.57-.86-3.22-.2-6.43-.34-9.67-.1-3.33.25-6.65.53-9.98.8-5.5.45-10.83,1.82-16.09,3.3-6.76,1.9-13.33,4.42-19.57,7.7-6.18,3.24-12.07,6.88-17.33,11.51-2.33,2.05-2.34,2.04-.14,4.26,2.49,2.52,4.81,5.17,6.88,8.05.88,1.23,1.69,2.56,2.97,3.64Zm-20.39,25c12.55-6.57,23.47-14.73,31.94-26.08-1.31-.24-2.3.01-3.3.52-1.96.99-3.87,2.07-5.89,2.96-1.97.87-2.56.27-3.51-1.07-1.45-2.04-2.84-4.12-4.24-6.19-.42-.62-.78-.73-1.37-.13-1.23,1.26-2.58,2.39-3.79,3.67-2.21,2.33-4.88,4.1-7.41,6.01-2.76,2.09-5.77,3.92-8.89,5.49-.36.18-.76.35-.91.79.13.31.41.42.67.53,2.29.95,4.48,2.11,6.6,3.4.35.21.77.36.73.9-.14,1.81.12,3.63-.17,5.46-.18,1.14-.73,2.27-.47,3.75Zm120.9-24.64c1.28,4.91,25.74,26.34,30.67,27.05.54-3.12-.51-6.24.06-9.38.16-.88.35-1.51,1.17-1.83,1.22-.48,2.46-.94,3.7-1.37,1.31-.44,2.67-.75,4.11-1.5-6.65-5.09-13.47-9.71-19.28-15.62-.22.18-.42.32-.6.48-2.04,1.64-3.39,3.84-4.94,5.9-1.18,1.57-2.18,1.67-3.89.7-1.66-.95-3.32-1.89-5.03-2.75-1.84-.93-3.76-1.68-5.98-1.67Z"/>
      <path class="cls-1" d="m184.15,120.03c.27.91-.07,1.33-.89,1.47-3.33.57-6.61.47-9.92-.27-2.94-.66-5.83-1.57-8.83-1.98-2.99-.4-5.96-.92-8.99-.52-1.86.24-3.71.53-5.5,1.13-.79.26-1.58.32-2.34-.27.75-1.06,1.88-1.22,2.85-1.55,4.67-1.55,9.39-1.87,14.19-.46,3.34.98,6.79,1.42,10.22,1.95,3.04.47,6.08.39,9.21.5Z"/>
      <path class="cls-1" d="m109.21,209.7c1.55.49,1.88-1.13,3.02-1.43.57.69,1.19,1.3.08,2.07-.29.2-.2.49-.1.78.24.79.24,1.27-.86,1.49-1.06.21-1.31-.08-1.43-1.01-.07-.59-.65-1.04-.71-1.91Z"/>
      <path class="cls-1" d="m143.95,193.18c-.31,2.29-1.81,3.59-3.3,2.83,1.03-1,1.85-2.17,3.3-2.83Z"/>
      <path class="cls-1" d="m128.36,168.71c-.35,0-.65-.2-.61-.48.14-.94,1-.99,1.69-1.12.29-.05.93.08.84.66-.19,1.15-1.38.4-1.91.94Z"/>
      <path class="cls-1" d="m130.17,169.41c.08.7.33,1.47-.66,1.7-.67.16-.72-.38-.72-.86,0-.99.6-1.03,1.38-.84Z"/>
      <path class="cls-1" d="m130.32,178.14c.35,1.49-1.03,1.64-1.54,2.36.27-.85.27-1.86,1.54-2.36Z"/>
      <path class="cls-1" d="m124.75,178.69c-.4.9-.93,1.13-1.66.88-.25-.08-.42-.33-.25-.59.47-.73,1.12-.4,1.91-.29Z"/>
      <path class="cls-1" d="m108.41,213.95c.17-.43.51-.43.89-.38.21.29.2.6-.1.73-.3.13-.65.08-.79-.35Z"/>
      <path class="cls-1" d="m132.95,183.1c-.22.28-.42.55-.8.43-.06-.08-.15-.17-.14-.22.15-.6.62-.14.94-.21Z"/>
      <path class="cls-1" d="m104.09,119.05c.97-.09,1.92-.06,2.91.17,1.95.45,3.79-.25,5.67-.7,4.05-.95,7.93-2.56,12.16-2.82,1.97-.12,3.93-.54,5.91-.43,3.62.2,7.1,1.01,10.33,2.73.48.26.9.58.67,1.15-.25.63-.92.44-1.31.28-.6-.25-1.23-.48-1.8-.77-3.33-1.71-6.92-1.86-10.51-1.63-3.2.21-6.32,1.01-9.44,1.77-2.96.73-5.9,1.55-8.89,2.13-1.61.31-3.3.09-4.92-.26-.82-.17-.92-.48-.78-1.63Z"/>
      <path class="cls-1" d="m146.42,88.75c2.15-.35,3.47,1.44,3.36,4.08-.06,1.44-1.77,3.29-3.64,3.2-1.91-.09-3.4-1.65-3.39-3.75.01-2.2,1.39-3.52,3.67-3.53Z"/>
      <path class="cls-1" d="m111.83,58.63c.1,1.3.51,2.44,1.25,3.4.47.61.64,1.22.2,1.8-.37.49-.99.84-1.64.62-.72-.24-.93-.91-.88-1.6.19-2.4-1.43-4.22-2.02-6.37-.21-.75-1.03-.68-1.6-.34-1.1.66-2.13,1.41-3.44,2.29,1.52,1.17,2.91-.08,4.27.21.22,1.34-.55,2.13-1.55,2.81-.51.35-1.24.51-.76,1.5.45.92.93,1.23,1.94.93.9-.27,1.84-.57,2.81-.3-.53,1.92-2.62,3.56-4.63,3.69-.8.05-.82-.63-1.01-1.04-.45-.96-.68-2.02-1.13-2.99-.62-1.36-1.37-2.66-2.05-4-.62-1.22-.42-1.96.84-2.48.9-.37,1.7-.8,2.3-1.59.16-.21.51-.45.73-.41,1.4.23,2.33-.58,3.3-1.35.83-.66,1.53-.55,2.41.16,1.25,1,2.11,2.46,3.66,3.21.36-.88-.1-1.48-.46-2.12-.2-.35-.58-.58-.63-1.04-.1-.88.03-1.76.79-2.23.72-.45,1.3.22,1.85.64,1.17-2.25,6.14-4.03,7.94-2.84.7-.42,1.28-1.24,2.31-.84.57,2.62.75,5.32,1.19,7.98.07.44.03,1.11.77,1.08.63-.02.79-.58.84-1.05.22-1.83.35-3.68.59-5.51.15-1.14-.32-1.88-1.32-2.42,1.1-.96,2.2-1.49,3.64-1.48,1.03.01,1.5.42,1.8,1.3.72,2.08,1.22,4.25,2.35,6.19.48.83.88,1.68,1.91,2.03-.45,1.25-1.51,1.44-2.53,1.78-.33-.4-.69-.75-.95-1.16-1.13-1.78-1.42-1.9-3.7-1.43.11.47.24.94.33,1.42.26,1.3.03,1.74-1.22,1.61-1.23-.13-2.11.58-3.16.87-1.48.42-1.63.25-1.72-1.22-.11-1.84-.26-3.68-.53-5.5-.25-1.65-.97-2-2.36-1.52-.92.32-.98,1.03-.79,1.69.59,2.02.39,4.2,1.6,6.11.68,1.07-.61,1.33-1.33,1.68-.84.41-1.36-.19-1.49-.8-.43-2.03-.76-4.09-1.02-6.15-.15-1.18-.3-1.32-2.26-1.21-.98.05-.94.61-.86,1.38.22,2.05.97,3.95,1.65,5.86.24.67.31,1.25-.11,1.85-.58.82-1.19.93-1.93.19-.9-.9-1.83-1.77-2.77-2.64-.37-.35-.75-.73-1.45-.66Z"/>
      <path class="cls-1" d="m193.7,68.08c1.67-1.38,2.7-3.13,3.72-4.88.3-.52.03-1.07-.33-1.49-.31-.36-.41-.63-.17-1.1.24-.46.6-.36.95-.37.75-.01,1.45.23,2.13.52.98.41,1.13,1.12.96,2.13-.27,1.57-.47,3.16-.44,4.78.97.15.98-.66,1.29-1.13.16-.24.23-.53.32-.81.62-1.96,1.04-2.16,3.09-1.38.09.48.16.92-.27,1.35-1.83,1.79-3.21,3.91-4.53,6.09-.88,1.45-1.06,1.48-2.77,1.41-.43-1.07.22-2.09.19-3.14-.03-1.08.08-2.16.09-3.24,0-.3.03-.71-.41-.81-.36-.08-.49.22-.65.47-.77,1.17-1.69,2.27-1.3,3.79-1.94.63-2.5.32-2.56-1.35-.76-.63-1.73-.31-2.62-.5-.28-.66-.11-1.29.05-1.93.39-1.57.15-1.98-1.3-2.45-.54-.17-.89-.08-1.03.51-.1.45-.2.89-.34,1.33-.19.62-.59.77-1.15.44-1.04-.61-2.02-1.29-3.29-1.42-.6-.06-.7-.61-.49-1.18.49-1.34.89-2.73,1.49-4.02.24-.51,0-.75-.13-1.14-.96.38-1.54,1.18-2.18,1.92-.05.06-.07.15-.12.22-.74.97-1.6,2.29-2.87,1.69-1.12-.53-.49-1.97-.32-3.02.15-.94.36-1.86.59-3.04-1.65.98-1.9,2.54-2.48,3.88-.09.21-.15.45-.24.67-.38.94-1.17.81-1.76.5-.64-.34-.27-.98.05-1.41,1.35-1.77,2-3.91,3.09-5.81.3-.53.12-1.23-.2-1.8-.5-.89.01-1.23.77-1.36,1.23-.22,2.44.13,3.21,1,.71.8.32,1.97.13,2.98-.23,1.23-1.02,2.34-.76,3.85,1.16-.76,1.81-1.86,2.67-2.75.46-.47.83-1.04,1.25-1.56.8-.96,1.72-1.41,2.95-.62.28,1.86-.38,3.54-1.14,5.19-.61,1.33-.75,2.8-1.29,4.14-.09.24.01.53.27.63.44.18.89-.05,1.08-.35.88-1.37,2.36-2.17,3.25-3.53.56-.85,1.2-1.55.68-2.69-.29-.64.21-.96.81-1.07,2.23-.4,3.96,1.46,3.4,3.67-.52,2.06-1.05,4.12-1.61,6.16-.18.67-.34,1.28.29,1.98Zm-3.42-6.11c1.38.79,2.33-.12,2.36-2.22-1.35.19-1.81,1.24-2.36,2.22Z"/>
      <path class="cls-1" d="m159.55,46.64c-.42,2-.76,4.01-1.28,5.98-.18.7-.23,1.37-.27,2.06-.06.93.45,1.24,1.33,1.3.86-2.05,1.4-4.17,1.92-6.29.17-.67-.22-1.15-.6-1.54-.82-.83-.39-1.31.37-1.72.8-.43,3.18-.21,3.65.48.49.73.71,1.64.71,2.56,0,.83-.03,1.66-.05,2.5,0,.33-.06.7.41.77.41.06.6-.18.72-.53.3-.82.58-1.64,1.06-2.38.46-.71.98-1.37,1.76-1.73.38-.17.79-.51,1.28-.2.54.34.44.87.39,1.35-.26,2.33-.46,4.67-.48,7.02,0,.62-.04,1.25.02,1.87.11,1.23-.71,1.26-1.57,1.33-.95.07-1.17-.36-1.19-1.25-.05-1.65.38-3.24.58-4.9-.86.02-1.19.51-1.45,1.11-.34.8-.68,1.61-1.08,2.38-.39.75-1.12.95-1.9.89-.77-.06-.57-.76-.71-1.24-.39-1.44-.02-2.93-.34-4.71-1.19,1.87-1.36,3.71-1.36,5.65-.92.04-1.84.46-2.5-.6-1.31.91-2.52.96-3.55-.29-1.02.98-2.47,1.3-3.37.76-1.08-.65-1.56-2.1-1.27-3.64.34-1.77.83-3.53.16-5.34-.29-.79.27-1.27.81-1.64.56-.39,1.22-.64,1.9-.99.79,1.33.09,2.55-.02,3.76-.18,1.78-.7,3.54-.13,5.35.17.54.43.87.95.95.47.07.74-.12,1.1-.53,1.53-1.74,1.34-3.79,1.1-5.78-.23-1.85.87-3.1,2.9-2.79Z"/>
      <path class="cls-1" d="m100.11,66.81c-.56.5-.6,1.09-.6,1.73,0,.7.14,1.45-.26,2.08-.96,1.51-2.45,2.75-4.43,1.15-.54-.43-1.08-.85-1.75-1.37-.07,1.18.5,2.09.45,3.1-.1,1.92-2.01,3.92-3.92,4.02-.57.03-.87-.16-.9-.74-.06-1.07.31-1.87,1.37-2.25.46-.17.92-.36,1.37-.54.45-.19.73-.48.63-1.02-.1-.55-.37-.9-.96-.96-.92-.08-1.86-.08-2.69.29-2.09.93-3.89-1.14-3.38-3.21.25-1.01.63-2.06,1.28-2.94.43-.57.94-1.12,1.71-1.15.48-.02,1.15-.32,1.41.41.22.62.15,1.19-.41,1.69-.61.55-1.39.75-2.03,1.21-.19.14-.31.37-.44.76,1.87-.16,3.73-.07,5.74-.11-.55-1.58-.62-3.12-.58-4.67.04-1.53,1.85-3.51,3.37-3.54,1.05-.02,1.89-.09,2.5-1.19.52-.93,1.08-.82,1.67.08,1.04,1.59,1.7,3.37,2.47,5.09.39.88.76,1.77,1.8,2.11.35.12.52.39.45.78-.17,1.03-.86,1.56-1.8,1.83-.97.28-1.17-.5-1.46-1.12-.22-.48-.41-.98-.64-1.54Zm-3.29-5.35c-.05,1.21-.65,1.58-1.58,1.68-.47.05-.9.43-1.37.56-1,.29-1.12,1.16-.8,1.77.77,1.49,1.56,3.04,3.22,3.8.93.43,1.77.11,2.12-.82.32-.84.17-1.92,1.28-2.34.06-.02.11-.36.04-.46-1.02-1.27-1.53-2.9-2.91-4.2Z"/>
      <path class="cls-1" d="m209.88,70.04h2.99c.36.71-.09,1.12-.49,1.54-1.53,1.64-3.08,3.27-4.61,4.91-.73.79-1.69,1.55-.43,2.65-1.97,1.13-2.94.7-3.32-1.36-.09-.47-.24-.67-.76-.79-2.25-.51-2.71-1.49-1.83-3.57.54-1.3,1.39-2.35,2.41-3.28.92-.83,1.63-1.78,1.64-3.09,0-.66.36-1.01,1.01-1.01.76,0,1.64-.32,2.14.56.35.62-.08,1.06-.48,1.52-1.53,1.75-3.18,3.4-4.29,5.49-.41.77-.59,1.41.15,2.09.8.73,1.43.17,1.93-.32,1.58-1.56,3.23-3.09,3.93-5.32Z"/>
      <path class="cls-1" d="m149.95,54.85c0,.17.05.35,0,.49-.51,1.13-3.08,2.39-4.35,2.16-1.39-.26-2.76-1.86-2.81-3.41-.05-1.49-.22-3.04.06-4.48.64-3.28,3.8-4.94,7.03-3.89.19.06.39.08.48.09.7,1.27-.61,1.81-.81,2.73-.07.33-.59.25-.87.02-.94-.78-2.05-.51-3.11-.55-.58-.02-.98.29-1.05.84-.26,2.07.03,4.08,1.31,5.74.64.83,1.85.41,2.79.34.44-.03.86-.24,1.33-.08Z"/>
      <path class="cls-1" d="m82.39,90.68c.1,1.71-2.28,4.13-3.65,3.8-1.07-.26-1.63-1.23-1.91-2.14-.86-2.81-.05-4.83,2.37-6.51.94-.65,2.12-.48,3.12-.17,1.11.34,2.43.34,2.95,1.9.78,2.32,1.2,4.54-.24,6.72-.78,1.18-1.73,2.24-3.09,2.81-.42.18-.84.46-1.23-.04-.38-.51-.3-1.03.07-1.49.4-.5,1-.68,1.57-.92,1.98-.8,2.5-1.58,2.39-3.4-.02-.35-.11-.65-.32-.92-.92-1.18-4.28-2.23-5.67-1.76-1.03.34-1.3,1.18-.63,2.01.74.93,1.56,1.58,2.81.78.41-.26.89-.42,1.45-.67Z"/>
      <path class="cls-1" d="m72.69,92.7c.12-.65.26-1.34.92-1.64.7-.31,1.04.33,1.4.76,1.47,1.8,2.56,3.86,4.16,5.58.77.83-.08,1.59-.73,2.14-.72.6-1.01-.15-1.34-.57-1.33-1.72-2.07-3.89-4.03-5.13-.3-.19-.44-.69-.38-1.14Z"/>
      <path class="cls-1" d="m213.89,90.34c-.44.6-.05.97.12,1.37.78,1.82.05,3.37-1.84,3.95-1.68.51-3.32.84-5.06.13-1.89-.78-2.66-2.38-1.74-4.2,1-1.98,2.53-3.48,4.57-4.4,1.84-.83,5.16.29,6.15,2.01.38.66.09,1.02-.49,1.22-.55.19-1.13.04-1.71-.09Zm-4.09,4.92c.5-.12,1.25-.28,1.43-.94.31-1.13.14-2.26-.77-3.11-1.14-1.08-2.09-.84-2.64.6-.6,1.59.41,3.49,1.98,3.45Z"/>
      <path class="cls-1" d="m222.89,95.12c-1.43.39-2.43-.11-3.41-.7-.53-.32-1.18-.81-1.64-.11-.41.62.25,1.11.65,1.56.08.09.17.18.27.25,2.02,1.43,1.98,3.68-.23,4.68-2.07.93-4.27,1.19-6.38-.04-.79-.46-1.29-1.19-1.54-2.04-.15-.53-.39-1.3.19-1.59.64-.32,1.45-.34,2.08.29.4.4.62.88.79,1.4.28.9.81,1.65,1.78,1.63.57-.01,1.39-.26,1.51-1.05.15-1,.04-2-.83-2.68-1.94-1.51-1.95-1.5-.2-3.28,1.08-1.11,2.27-2.03,3.89-1.19,1.23.64,2.17,1.64,3.06,2.88Z"/>
    </g>
  </g>
</svg>